<svg preserveAspectRatio="none" width="100%" height="100%" overflow="visible" style="display: block;" viewBox="0 0 178 36.5535" fill="none" xmlns="http://www.w3.org/2000/svg">
<g id="Group 13274">
<g id="Group 13256">
<path id="Vector" d="M77.0865 35.867H62.7894C57.3029 35.867 52.8394 31.2761 52.8394 25.6331V10.9281C52.8394 5.28504 57.3029 0.694191 62.7894 0.694191H77.0865C82.5731 0.694191 87.0366 5.28504 87.0366 10.9281V25.6331C87.0366 31.2761 82.5731 35.867 77.0865 35.867ZM62.7894 3.81784C58.9776 3.81784 55.8747 7.00748 55.8747 10.9298V25.6348C55.8747 29.5554 58.9759 32.7468 62.7894 32.7468H77.0865C80.8984 32.7468 84.0012 29.5572 84.0012 25.6348V10.9281C84.0012 7.00748 80.9001 3.81611 77.0865 3.81611H62.7894V3.81784Z" fill="var(--fill-0, white)"/>
<path id="Vector_2" d="M69.9393 27.3224C65.0926 27.3224 61.1491 23.2664 61.1491 18.2814C61.1491 13.2964 65.0926 9.24033 69.9393 9.24033C74.7861 9.24033 78.7296 13.2964 78.7296 18.2814C78.7296 23.2664 74.7861 27.3224 69.9393 27.3224ZM69.9393 12.3622C66.7656 12.3622 64.1844 15.0171 64.1844 18.2814C64.1844 21.5457 66.7656 24.2005 69.9393 24.2005C73.1131 24.2005 75.6943 21.5457 75.6943 18.2814C75.6943 15.0171 73.1131 12.3622 69.9393 12.3622Z" fill="var(--fill-0, white)"/>
<path id="Vector_3" d="M81.0326 9.37172C81.2892 8.25954 80.6206 7.14399 79.5393 6.88005C78.458 6.61612 77.3734 7.30376 77.1168 8.41594C76.8602 9.52811 77.5287 10.6437 78.61 10.9076C79.6914 11.1715 80.776 10.4839 81.0326 9.37172Z" fill="var(--fill-0, white)"/>
</g>
<g id="Group 13255">
<path id="Vector_4" d="M0.111419 36.5535L2.42758 27.4707C0.83733 24.6805 0 21.5082 0 18.2508C0 8.18709 7.9597 0.000305209 17.7443 0.000305209C27.5289 0.000305209 35.4886 8.18709 35.4886 18.2508C35.4886 28.3146 27.5289 36.5014 17.7443 36.5014C14.7208 36.5014 11.7581 35.7113 9.13298 34.2112L0.111419 36.5535ZM9.58878 30.9573L10.1172 31.2854C12.4114 32.7092 15.05 33.4628 17.7443 33.4628C25.8982 33.4628 32.5327 26.639 32.5327 18.2526C32.5327 9.86612 25.8998 3.04061 17.7443 3.04061C9.58878 3.04061 2.95598 9.86438 2.95598 18.2508C2.95598 21.154 3.75448 23.9772 5.2637 26.4133L5.61146 26.9741L4.24067 32.3463L9.58878 30.9573Z" fill="var(--fill-0, white)"/>
<path id="Vector_5" d="M12.6161 9.8473C12.3443 9.83515 11.9762 9.82126 11.6758 9.81084C11.3263 9.79869 10.9836 9.9046 10.6966 10.1095C9.57061 10.9134 7.50598 13.3113 9.86435 17.6174C12.9368 23.1111 17.478 25.8423 21.0349 26.707C24.5936 27.5717 26.3206 25.1148 26.5147 24.6078C26.6633 24.2171 26.8102 23.4445 26.822 22.868C26.827 22.5937 26.6869 22.3384 26.4557 22.203C25.5609 21.6786 23.3258 20.524 22.4091 20.4181C22.2268 20.3972 22.0495 20.4719 21.9246 20.6108C21.4469 21.1421 20.8611 22.2221 20.3546 22.6163C20.2077 22.7309 20.0153 22.7604 19.8397 22.7031C18.8201 22.3766 15.204 20.7271 13.4483 17.1173C13.3538 16.9211 13.3639 16.6867 13.477 16.4992C13.7387 16.0651 14.3329 15.7387 14.7246 14.8132C14.8157 14.5996 14.8242 14.3565 14.7516 14.1343C14.2941 12.7331 13.5125 10.9724 13.1715 10.2241C13.0702 10.0001 12.8558 9.85598 12.6178 9.84557L12.6161 9.8473Z" fill="var(--fill-0, white)"/>
</g>
<path id="Vector_6" d="M120.962 6.4522H124.775V0.428425C124.775 0.395192 124.751 0.367207 124.719 0.36196C116.372 -0.984818 111.245 1.27497 111.245 9.7072V13.9627C111.245 14.0256 111.196 14.0764 111.135 14.0764H105.578V20.8995H111.135C111.196 20.8995 111.245 20.9502 111.245 21.0131V35.8977H118.121V21.0131C118.121 20.9502 118.17 20.8995 118.23 20.8995H123.725C123.725 20.8995 123.733 20.896 123.733 20.8907L124.53 14.0746H118.23C118.17 14.0746 118.121 14.0239 118.121 13.9609V9.70545C118.121 7.37395 118.994 6.45045 120.963 6.45045L120.962 6.4522Z" fill="var(--fill-0, white)"/>
<g id="Group 13257">
<path id="Vector_7" d="M162.188 15.5296C166.014 9.08948 178 9.88955 178 20.4728V36.4174H170.755V22.4584C170.755 20.17 168.951 18.3152 166.725 18.3152C164.499 18.3152 162.695 20.17 162.695 22.4584V36.4174H155.314V12.1865H162.178L162.187 15.5279L162.188 15.5296Z" fill="var(--fill-0, white)"/>
<path id="Vector_8" d="M151.824 12.3265H143.971V36.4174H151.824V12.3265Z" fill="var(--fill-0, white)"/>
<path id="Vector_9" d="M151.847 5.30381C152.075 2.93612 150.393 0.826835 148.091 0.592594C145.789 0.358354 143.739 2.08786 143.511 4.45555C143.283 6.82324 144.965 8.93253 147.267 9.16677C149.569 9.40101 151.619 7.6715 151.847 5.30381Z" fill="var(--fill-0, white)"/>
</g>
</g>
</svg>
