<svg preserveAspectRatio="none" width="100%" height="100%" overflow="visible" style="display: block;" viewBox="0 0 30.2031 29.9348" fill="none" xmlns="http://www.w3.org/2000/svg">
<g id="Group 13276">
<path id="Vector" d="M0.0948247 29.9348L2.06603 22.4966C0.712622 20.2115 0 17.6136 0 14.9461C0 6.70447 6.77422 0 15.1015 0C23.4289 0 30.2031 6.70447 30.2031 14.9461C30.2031 23.1877 23.4289 29.8921 15.1015 29.8921C12.5283 29.8921 10.0069 29.2452 7.77275 28.0166L0.0948247 29.9348ZM8.16067 25.3519L8.61037 25.6206C10.5629 26.7866 12.8085 27.4037 15.1015 27.4037C22.041 27.4037 27.6874 21.8155 27.6874 14.9475C27.6874 8.07949 22.0424 2.48983 15.1015 2.48983C8.16067 2.48983 2.51573 8.07807 2.51573 14.9461C2.51573 17.3236 3.1953 19.6356 4.47975 21.6306L4.77571 22.0899L3.60908 26.4894L8.16067 25.3519Z" fill="var(--fill-0, #02033B)"/>
<path id="Vector_2" d="M10.7367 8.06421C10.5054 8.05426 10.1921 8.04288 9.93641 8.03435C9.639 8.02439 9.34734 8.11113 9.1031 8.27892C8.14479 8.93728 6.38766 10.901 8.39479 14.4274C11.0096 18.9265 14.8745 21.1632 17.9017 21.8713C20.9303 22.5794 22.4001 20.5674 22.5653 20.1522C22.6918 19.8322 22.8168 19.1995 22.8268 18.7274C22.8311 18.5027 22.7119 18.2937 22.515 18.1828C21.7536 17.7533 19.8513 16.8078 19.0712 16.721C18.916 16.7039 18.7652 16.7651 18.6588 16.8788C18.2522 17.314 17.7537 18.1984 17.3227 18.5212C17.1977 18.615 17.0339 18.6392 16.8845 18.5923C16.0167 18.325 12.9392 16.9741 11.445 14.0179C11.3645 13.8572 11.3731 13.6653 11.4694 13.5117C11.6921 13.1562 12.1978 12.8889 12.5312 12.131C12.6087 11.9561 12.6159 11.757 12.5541 11.575C12.1648 10.4275 11.4996 8.98563 11.2094 8.37277C11.1231 8.18934 10.9407 8.07132 10.7381 8.06279L10.7367 8.06421Z" fill="var(--fill-0, #02033B)"/>
</g>
</svg>
