<svg preserveAspectRatio="none" width="100%" height="100%" overflow="visible" style="display: block;" viewBox="0 0 14 21" fill="none" xmlns="http://www.w3.org/2000/svg">
<g id="Livello_1" clip-path="url(#clip0_4062_79)">
<path id="Vector" d="M3.34249 21C3.07489 21 2.8073 20.9304 2.56646 20.7888C1.97533 20.4433 1.70773 19.7787 1.88775 19.0948L1.92181 19.0013L4.85074 13.1562L0.778454 11.8101C0.347871 11.5702 0.0681147 11.1646 0.007298 10.6992C-0.0535187 10.2073 0.138662 9.69858 0.523024 9.33627L9.5093 0.47989C10.0275 -0.0215951 10.7548 -0.139168 11.3654 0.17516C11.9541 0.47989 12.2582 1.11575 12.139 1.79719L12.1268 1.86677L12.0952 1.92916L9.1444 7.84621L13.224 9.1947C13.6448 9.43704 13.9222 9.83775 13.9854 10.2936C14.0511 10.7639 13.8857 11.2438 13.5329 11.6037L4.46394 20.5465C4.14283 20.8464 3.74144 21 3.34249 21ZM2.81946 19.378C2.74405 19.7451 2.98488 19.9178 3.06273 19.9634C3.24275 20.069 3.5298 20.0978 3.78766 19.8579L12.8396 10.9319C12.9783 10.7903 13.0488 10.6032 13.0221 10.4232C13.0002 10.2721 12.9126 10.1377 12.7715 10.0441L7.77967 8.40768L11.1903 1.57164C11.2243 1.22372 11.0127 1.07255 10.9154 1.02217C10.7329 0.928588 10.4483 0.914191 10.1953 1.15894L1.2066 10.0249C1.03632 10.1857 0.953606 10.392 0.9755 10.584C0.990096 10.692 1.04361 10.8431 1.22363 10.9559L6.2179 12.5947L2.81703 19.378H2.81946Z" fill="var(--fill-0, #727272)"/>
</g>
<defs>
<clipPath id="clip0_4062_79">
<rect width="14" height="21" fill="white"/>
</clipPath>
</defs>
</svg>
