<svg preserveAspectRatio="none" width="100%" height="100%" overflow="visible" style="display: block;" viewBox="0 0 22 20" fill="none" xmlns="http://www.w3.org/2000/svg">
<g id="Livello_1" clip-path="url(#clip0_4062_38)">
<path id="Vector" d="M16.2872 0C14.5441 0 12.8811 0.797406 11.8013 2.14343C11.6736 2.0169 11.5448 1.88932 11.4161 1.76174C11.3609 1.70751 11.27 1.6097 11.1651 1.49593L11.138 1.46616C10.4899 0.766573 10.1556 0.438042 9.88723 0.339163C9.54316 0.211578 9.15581 0.272181 8.8745 0.497581L6.77653 2.58891C6.72892 2.42624 6.65426 2.29334 6.55256 2.18489C6.39351 2.0169 6.17603 1.92334 5.92501 1.91377C5.6188 1.90527 4.26524 1.90739 3.98825 1.91377C3.76861 1.92015 3.57602 2.00415 3.43211 2.15725C3.24926 2.34969 3.16378 2.6325 3.17893 2.99718L3.19083 3.28531C3.22654 4.222 3.26224 5.19058 3.18326 6.06454C3.1746 6.1581 3.12591 6.24316 3.08371 6.30057C2.72017 6.70246 2.28845 7.10648 1.87189 7.49774L1.84376 7.52432C1.34713 7.98788 0.833185 8.46739 0.397145 8.97347C0.185076 9.21801 -0.210931 9.67306 0.140714 10.3004L0.152616 10.3216C0.47072 10.8532 1.18808 10.8181 1.71933 10.7926C1.7875 10.7894 1.8654 10.7852 1.93789 10.7831L1.94438 18.7954V18.823C1.98658 19.3642 2.1478 19.8756 3.04801 19.9436C3.53057 19.9809 4.06183 19.9989 4.67207 19.9989C5.42513 19.9989 6.19117 19.9702 6.77761 19.9447H6.80358C7.04053 19.9203 7.76222 19.849 7.85527 19.0963L7.85743 19.0665C7.89205 18.3403 7.87041 17.5908 7.84986 16.8657V16.8444C7.82822 16.0683 7.80549 15.2655 7.85418 14.5128C7.88556 14.012 7.94074 14.0067 8.1474 13.9865C8.45901 13.9557 8.99676 13.9408 9.58536 13.9397C9.83422 13.9397 10.0809 13.945 10.3179 13.9535C10.5732 13.9631 10.7626 13.9737 10.8978 13.9854C11.045 13.9982 11.1239 14.0684 11.1434 14.2045C11.191 14.9051 11.1629 15.6674 11.1358 16.4095C11.1239 16.7476 11.1099 17.1315 11.1055 17.5025C11.0969 18.0331 11.1099 18.4892 11.1456 18.8996C11.2202 19.7523 11.7396 19.9054 12.2903 19.9436C12.9969 19.9915 13.9923 20.0074 14.8882 19.9872C15.2918 19.9787 15.638 19.9639 15.9161 19.9426C16.1952 19.9224 16.8476 19.8756 17.0251 19.2122L17.0348 19.1654L17.0392 19.1005C17.0532 18.5753 17.0597 17.9969 17.0608 17.2793C17.063 16.9199 17.0619 16.5616 17.0608 16.2033L17.0565 15.2751C17.0532 14.7318 17.05 14.1906 17.05 13.6473C17.05 13.3688 17.05 13.0902 17.0521 12.8106C17.0543 12.5225 17.0575 12.2365 17.0619 11.9515C17.0673 11.69 17.0727 11.4295 17.0803 11.1711C19.8945 10.7862 21.999 8.42167 21.999 5.61267C21.999 2.51768 19.4368 0 16.2872 0ZM16.0838 15.2804L16.0881 16.2086C16.0903 16.5637 16.0913 16.9199 16.0881 17.2771C16.0881 17.9267 16.0816 18.4647 16.0697 18.9623C16.0351 18.9708 15.968 18.9814 15.8446 18.991C15.5709 19.0112 15.242 19.025 14.8665 19.0335C14.0009 19.0537 13.0401 19.0378 12.3574 18.991C12.2882 18.9868 12.1767 18.9793 12.1334 18.9666C12.1269 18.9379 12.1215 18.8762 12.1161 18.8198C12.0837 18.4456 12.0718 18.0192 12.0804 17.5174C12.0847 17.157 12.0988 16.7785 12.1107 16.4457C12.1378 15.7174 12.1681 14.8924 12.115 14.1279L12.1129 14.1013C12.0393 13.507 11.5979 13.0881 10.9887 13.0349C10.8351 13.02 10.6392 13.0094 10.3547 12.9988C10.1188 12.9903 9.86127 12.985 9.58969 12.9839C8.94266 12.9839 8.39734 13.0009 8.05111 13.036C6.96588 13.1444 6.90961 14.029 6.88256 14.4543C6.83063 15.2613 6.85551 16.1225 6.87715 16.8827V16.8944C6.89663 17.5812 6.9161 18.2914 6.88689 18.9655C6.85984 18.9729 6.81007 18.9825 6.72243 18.991C5.52359 19.0431 4.25767 19.0793 3.12375 18.991C3.05342 18.9857 2.97443 18.9793 2.94306 18.9708C2.93007 18.9336 2.9225 18.8315 2.91709 18.7699L2.9106 10.4875V10.4503L2.89761 10.3769C2.82836 10.093 2.60548 9.89315 2.29927 9.84424C2.10993 9.81447 1.88487 9.82617 1.66739 9.83786H1.65441C1.28329 9.85594 1.05607 9.84956 0.980335 9.81872C0.977089 9.81234 0.973843 9.80915 0.974925 9.81022C0.98358 9.78151 1.03768 9.70921 1.13722 9.59545C1.53539 9.13402 2.0277 8.67258 2.51243 8.21966C2.93656 7.82308 3.41805 7.37334 3.83245 6.91298L3.84868 6.89278C4.02396 6.66631 4.12783 6.41008 4.15163 6.15172C4.23819 5.20865 4.19924 4.2018 4.16029 3.2279L4.15055 2.9621C4.14839 2.92595 4.14947 2.89618 4.15055 2.87172C4.55413 2.86747 5.52251 2.86641 5.84602 2.87172C5.86333 2.94402 5.87523 3.10563 5.86009 3.45649V3.4735C5.85576 3.57344 5.85143 3.66913 5.85143 3.75631L5.85792 5.00133L7.12276 3.60853L9.49988 1.23438C9.50962 1.23013 9.52152 1.22907 9.53234 1.23119C9.59402 1.26628 9.78986 1.4332 10.4163 2.11153C10.5678 2.27526 10.6598 2.37308 10.7247 2.43794C10.9011 2.6123 11.0774 2.78773 11.2549 2.9621C10.8102 3.77439 10.5765 4.68875 10.5765 5.61374C10.5765 8.64494 13.0412 11.1286 16.1043 11.2232C16.0978 11.4603 16.0924 11.6974 16.0881 11.9366C16.0838 12.2258 16.0805 12.515 16.0784 12.8042C16.0762 13.086 16.0762 13.3677 16.0762 13.6484C16.0762 14.1928 16.0794 14.7371 16.0827 15.2815L16.0838 15.2804ZM16.2872 10.2685C13.6753 10.2685 11.5502 8.18032 11.5502 5.61267C11.5502 4.86099 11.7277 4.14226 12.0772 3.47882C12.1778 3.2885 12.2914 3.10669 12.4148 2.93552C13.3031 1.69582 14.7508 0.956887 16.2872 0.956887C18.9002 0.956887 21.0252 3.04503 21.0252 5.61267C21.0252 7.24044 20.1791 8.72362 18.7628 9.58056C18.0205 10.0292 17.1668 10.2674 16.2872 10.2685Z" fill="var(--fill-0, #727272)"/>
<path id="Vector_2" d="M17.9252 2.64845C17.5877 2.50704 17.1765 2.44325 16.7372 2.46239C16.391 2.47834 16.0502 2.54532 15.7494 2.65696C14.8611 2.98655 14.2541 3.68295 14.0398 4.61751C14.0301 4.65579 14.0225 4.693 14.015 4.73127L13.5291 4.7334L13.3971 5.38621H13.8667L13.9522 5.47127V5.82744H13.5281L13.4112 6.38137C13.4047 6.4037 13.4112 6.42815 13.4285 6.44942C13.4437 6.46962 13.4621 6.47919 13.4826 6.47919H14.0561C14.24 7.41162 14.7291 8.11759 15.4367 8.46845C15.7851 8.64069 16.2319 8.74488 16.6918 8.76189C16.7416 8.76402 16.7913 8.76508 16.8411 8.76508C16.9742 8.76508 17.1062 8.75764 17.2328 8.74276C17.2944 8.73638 17.3561 8.72787 17.4135 8.71618C17.6039 8.68322 17.7824 8.62155 17.962 8.5567C17.9848 8.54925 18.0064 8.54181 18.0324 8.53118L18.067 8.51842V7.52326L17.9772 7.59981C17.816 7.73803 17.6201 7.84009 17.3951 7.90389C17.1798 7.96661 16.9385 7.99213 16.6972 7.97618C16.6572 7.97406 16.6182 7.96981 16.5771 7.96449C16.3715 7.9411 16.167 7.88687 15.9885 7.80713C15.4562 7.5711 15.0959 7.08415 14.992 6.46537L17.4427 6.46324L17.5768 5.82532H14.8892V5.38408H17.6775L17.8084 4.73021H14.9682C15.0547 4.29536 15.3512 3.82755 15.7061 3.5745C15.7645 3.5341 15.8219 3.49795 15.8792 3.46818C16.3996 3.18962 17.0954 3.16304 17.6082 3.4012C17.6861 3.43735 17.7565 3.48626 17.8235 3.5341C17.8711 3.56706 17.9177 3.60002 17.9609 3.62341L17.9826 3.6468H18.0075C18.0367 3.6468 18.054 3.6266 18.0627 3.61703L18.0713 3.6064L18.2336 2.85578V2.84621C18.2195 2.77072 17.9956 2.67397 17.9263 2.64632L17.9252 2.64845Z" fill="var(--fill-0, #727272)"/>
</g>
<defs>
<clipPath id="clip0_4062_38">
<rect width="22" height="20" fill="white"/>
</clipPath>
</defs>
</svg>
