<svg preserveAspectRatio="none" width="100%" height="100%" overflow="visible" style="display: block;" viewBox="0 0 19 29" fill="none" xmlns="http://www.w3.org/2000/svg">
<g id="Modalit&#195;&#160;_Isolamento" clip-path="url(#clip0_4062_19)">
<path id="Vector" d="M9.19646 28.9941C6.73077 25.1361 4.30997 21.2195 2.37585 17.0463C0.396834 12.7796 -1.42056 8.26545 1.61801 3.97309C5.36952 -1.32729 13.5999 -1.32363 17.3568 3.97309C20.3235 8.15366 18.7414 12.8767 16.7731 17.0829C15.1263 20.6037 12.8402 24.1794 10.5541 27.3043C10.2003 27.7882 9.75496 28.4388 9.36706 28.8713C9.33833 28.9025 9.24315 29.0271 9.19646 28.996V28.9941ZM5.34617 13.8921C8.41706 17.0499 13.7112 15.7688 15.0365 11.5461C16.5414 6.74975 11.8776 2.33093 7.30005 4.21319C3.49107 5.78021 2.4405 10.9028 5.34617 13.8921Z" fill="var(--fill-0, #02033B)"/>
</g>
<defs>
<clipPath id="clip0_4062_19">
<rect width="19" height="29" fill="white"/>
</clipPath>
</defs>
</svg>
