<svg preserveAspectRatio="none" width="100%" height="100%" overflow="visible" style="display: block;" viewBox="0 0 21.2472 32.4299" fill="none" xmlns="http://www.w3.org/2000/svg">
<g id="Modalit&#195;&#160;_Isolamento" clip-path="url(#clip0_4062_63)">
<path id="Vector" d="M10.2843 32.4226C7.52695 28.1083 4.81984 23.7284 2.65697 19.0616C0.443889 14.2903 -1.58845 9.24224 1.80949 4.44221C6.00471 -1.48506 15.2085 -1.48097 19.4097 4.44221C22.7273 9.11722 20.9581 14.3989 18.757 19.1026C16.9155 23.0398 14.359 27.0384 11.8025 30.5329C11.4069 31.074 10.9088 31.8015 10.475 32.2852C10.4429 32.3201 10.3365 32.4595 10.2843 32.4246V32.4226ZM5.9786 15.5343C9.41269 19.0657 15.333 17.6331 16.8151 12.9109C18.498 7.54727 13.2826 2.60582 8.16356 4.7107C3.90409 6.46306 2.72927 12.1915 5.9786 15.5343Z" fill="var(--fill-0, #80819D)"/>
</g>
<defs>
<clipPath id="clip0_4062_63">
<rect width="21.2472" height="32.4299" fill="white"/>
</clipPath>
</defs>
</svg>
