<svg preserveAspectRatio="none" width="100%" height="100%" overflow="visible" style="display: block;" viewBox="0 0 69.7549 60.3344" fill="none" xmlns="http://www.w3.org/2000/svg">
<g id="Group">
<path id="Vector" d="M69.7549 28.0682H63.2256V49.5944C62.3373 49.888 61.4689 50.1355 60.6304 50.3202L60.468 50.3565C60.3221 50.3928 60.1862 50.4192 60.0238 50.4555C59.0859 50.6402 58.1711 50.7359 57.2165 50.7359L56.5735 50.726H56.5238V26.0162L34.8775 8.5742L13.2178 26.0162V33.5677C13.2178 33.5677 13.241 33.5809 13.2543 33.5908V41.8945C12.2036 42.3233 11.1762 42.7918 10.2017 43.3196C9.86698 43.4945 9.53222 43.6891 9.1113 43.9234C8.43184 44.316 7.77559 44.7217 7.09614 45.1902C6.90059 45.3123 6.70172 45.4475 6.51612 45.5828V28.0682H0L24.7022 8.18161L34.8642 0H34.8775L40.3031 4.36792L69.7549 28.0682Z" fill="var(--fill-0, white)"/>
<path id="Vector_2" d="M60.8814 55.8564C59.5225 56.1402 58.1106 56.2622 56.5926 56.2259C56.2943 56.1765 55.9993 56.2028 55.701 56.1765C55.4524 56.1633 55.1939 56.127 54.9089 56.0907L54.6238 56.0676C54.3885 56.0313 54.1664 56.0049 53.9311 55.9554C53.782 55.9323 53.5964 55.8927 53.4008 55.8564L53.1423 55.807C52.844 55.7575 52.5623 55.6948 52.264 55.609C51.2133 55.3616 50.1129 55.0185 48.9496 54.5764C48.8269 54.5269 48.6778 54.4774 48.5286 54.4181C48.416 54.3818 48.2933 54.3323 48.1707 54.2828C45.549 53.2238 43.0035 51.8613 40.531 50.5318L38.7147 49.585C36.8487 48.5755 35.3141 47.8266 33.869 47.1998C33.4846 47.0282 33.0769 46.8666 32.6957 46.7214C32.0892 46.474 31.5092 46.2661 30.9391 46.0682C28.3539 45.3061 25.6593 44.9498 22.9779 45.194C22.557 45.2072 22.1626 45.2566 21.7781 45.3061C20.7639 45.4051 19.7364 45.5898 18.6493 45.8604C18.3775 45.9098 18.119 45.9824 17.8704 46.0682C16.3126 46.5103 14.8543 47.0513 13.5186 47.7045C13.1109 47.9025 12.69 48.1103 12.2823 48.3181C11.9608 48.4765 11.6526 48.6612 11.3444 48.8361C10.7014 49.2056 10.1445 49.5487 9.62418 49.905L9.3524 50.1029C9.11707 50.2613 8.88175 50.4229 8.65969 50.5945C8.02995 51.0497 7.44662 51.5182 6.91631 51.9735C5.02379 53.5834 3.33013 55.4309 1.92151 57.4103C4.03609 56.1798 6.05125 55.1603 8.02995 54.2729C13.0877 52.0329 17.7345 50.9013 22.0267 50.9013C25.9344 50.9013 29.557 51.8349 32.9311 53.6923C38.5821 56.6944 44.7005 59.6833 51.674 60.2475C54.8393 60.5807 58.041 59.9538 61.193 58.4132C61.836 58.0932 62.3431 57.8095 62.7872 57.539L62.9098 57.4532C64.5306 56.48 66.1115 55.2527 67.5599 53.811C65.5216 54.5731 63.5661 55.2758 61.5874 55.7047C61.3786 55.7674 61.1433 55.8169 60.8814 55.8531V55.8564Z" fill="var(--fill-0, white)"/>
</g>
</svg>
