<svg preserveAspectRatio="none" width="100%" height="100%" overflow="visible" style="display: block;" viewBox="0 0 177.845 10.0593" fill="none" xmlns="http://www.w3.org/2000/svg">
<g id="Group">
<path id="Vector" d="M4.62691 3.65918C4.57719 3.56021 4.52085 3.46454 4.45456 3.37547C4.24906 3.10165 3.99054 2.8905 3.67567 2.73875C3.3608 2.58699 3.00285 2.51111 2.60181 2.51111C2.11127 2.51111 1.67046 2.62989 1.27936 2.87072C0.884946 3.11155 0.573392 3.43484 0.344698 3.84062C0.116004 4.2464 0 4.70167 0 5.20313C0 5.70458 0.116004 6.16645 0.344698 6.56893C0.573392 6.97142 0.884946 7.29142 1.27936 7.52565C1.67377 7.76318 2.12122 7.87865 2.62501 7.87865C3.00948 7.87865 3.3608 7.80277 3.67236 7.65102C3.98391 7.49926 4.24244 7.28482 4.44461 7.0077C4.51422 6.91203 4.57388 6.80976 4.62691 6.70089V7.76649H5.19367V2.61999H4.62691V3.65588V3.65918ZM4.12312 6.75698C3.77179 7.15287 3.29783 7.3475 2.70455 7.3475C2.29688 7.3475 1.9323 7.25513 1.61411 7.07038C1.29593 6.88564 1.04404 6.63161 0.861745 6.305C0.679453 5.9817 0.589964 5.60891 0.589964 5.18664C0.589964 4.76436 0.679453 4.40476 0.861745 4.07815C1.04404 3.75485 1.29262 3.50082 1.60749 3.31608C1.92235 3.13133 2.28362 3.03896 2.6913 3.03896C3.09897 3.03896 3.42709 3.12804 3.71876 3.30948C4.01043 3.49093 4.23912 3.74165 4.40153 4.06826C4.56393 4.39156 4.64679 4.76766 4.64679 5.19653C4.64679 5.83984 4.47113 6.35779 4.1198 6.75038L4.12312 6.75698Z" fill="var(--fill-0, white)"/>
<path id="Vector_2" d="M15.5854 3.66248C15.5324 3.56351 15.476 3.46454 15.4064 3.37547C15.1976 3.10165 14.9325 2.8905 14.611 2.73875C14.2895 2.58699 13.9282 2.51111 13.5272 2.51111C13.0433 2.51111 12.6091 2.62658 12.2213 2.85421C11.8335 3.08185 11.5286 3.39526 11.3098 3.78785C11.0911 4.18373 10.9817 4.6258 10.9817 5.12065C10.9817 5.61551 11.0944 6.07078 11.3165 6.46666C11.5385 6.86255 11.8435 7.17266 12.2346 7.39699C12.6223 7.62133 13.0632 7.73349 13.5537 7.73349C13.9481 7.73349 14.2994 7.66091 14.6176 7.51245C14.9325 7.364 15.1976 7.15286 15.4064 6.87574C15.476 6.78337 15.5357 6.6844 15.5887 6.58213V7.56524C15.5887 8.16236 15.3965 8.63743 15.0087 8.99373C14.6209 9.35002 14.1039 9.52487 13.4509 9.52487C12.9969 9.52487 12.6025 9.44239 12.2611 9.27744C11.9197 9.11249 11.6479 8.88815 11.449 8.60774L11.0811 8.96073C11.333 9.31373 11.6612 9.58755 12.0655 9.7756C12.4699 9.96364 12.9273 10.0593 13.441 10.0593C13.9812 10.0593 14.4585 9.95704 14.8662 9.7492C15.2739 9.54136 15.592 9.25435 15.8174 8.88156C16.0428 8.50877 16.1555 8.0733 16.1555 7.57184V2.62329H15.5887V3.66248H15.5854ZM15.37 6.22583C15.2043 6.53924 14.9722 6.78336 14.674 6.95491C14.3757 7.12976 14.031 7.21554 13.6399 7.21554C13.2488 7.21554 12.8809 7.12647 12.566 6.94502C12.2511 6.76357 12.0025 6.51615 11.8269 6.19944C11.6479 5.88274 11.5584 5.51984 11.5584 5.11406C11.5584 4.70828 11.6479 4.35198 11.8269 4.04187C12.0059 3.73176 12.2511 3.48763 12.5627 3.31279C12.8742 3.13464 13.2289 3.04556 13.6299 3.04556C14.031 3.04556 14.369 3.13464 14.6706 3.31279C14.9723 3.49093 15.2043 3.73176 15.37 4.04187C15.5357 4.35198 15.6219 4.71488 15.6219 5.12726C15.6219 5.53964 15.539 5.91572 15.37 6.22913V6.22583Z" fill="var(--fill-0, white)"/>
<path id="Vector_3" d="M25.8085 2.82783C25.4439 2.61669 25.0296 2.51111 24.5623 2.51111C24.0651 2.51111 23.6144 2.62988 23.21 2.86411C22.8057 3.10164 22.4875 3.41835 22.2588 3.82083C22.0301 4.22331 21.9141 4.67858 21.9141 5.18664C21.9141 5.69469 22.0334 6.15325 22.2687 6.55904C22.5074 6.96482 22.8289 7.28482 23.2365 7.52235C23.6442 7.75988 24.1082 7.87535 24.6286 7.87535C25.0429 7.87535 25.4307 7.79617 25.7853 7.63782C26.14 7.47946 26.4416 7.25843 26.6868 6.97801L26.309 6.61182C26.1168 6.85595 25.8781 7.0374 25.5898 7.15946C25.3014 7.28153 24.9932 7.34091 24.6617 7.34091C24.2242 7.34091 23.8431 7.25183 23.5149 7.07038C23.1901 6.88894 22.9349 6.63491 22.7526 6.30831C22.6068 6.04108 22.5206 5.73758 22.4941 5.39448H26.9188C26.9321 5.2988 26.9454 5.21633 26.952 5.14705C26.9586 5.07777 26.9619 5.01838 26.9619 4.97549C26.9619 4.48724 26.8592 4.06166 26.657 3.69217C26.4515 3.32268 26.1698 3.03236 25.8052 2.82452L25.8085 2.82783ZM22.7427 4.04846C22.9184 3.73176 23.1603 3.48104 23.4719 3.30289C23.7834 3.12474 24.1414 3.03237 24.5524 3.03237C24.9633 3.03237 25.2815 3.11814 25.5632 3.28639C25.845 3.45464 26.0604 3.69547 26.2096 3.99898C26.3388 4.2662 26.4018 4.56971 26.4084 4.91281H22.4974C22.5239 4.5928 22.6068 4.30249 22.746 4.04846H22.7427Z" fill="var(--fill-0, white)"/>
<path id="Vector_4" d="M36.1706 2.79483C35.8623 2.60679 35.5044 2.51111 35.0967 2.51111C34.6891 2.51111 34.3344 2.60019 34.0129 2.77834C33.6947 2.95319 33.4461 3.19072 33.2605 3.48763V2.62329H32.6938V7.76978H33.2605V4.71488C33.2605 4.38167 33.3335 4.09135 33.476 3.84062C33.6218 3.5899 33.8207 3.39196 34.0759 3.2501C34.3311 3.10495 34.6261 3.03567 34.9608 3.03567C35.4514 3.03567 35.8425 3.19071 36.1341 3.50082C36.4258 3.81093 36.5749 4.21671 36.5749 4.71817V7.77308H37.1417V4.65219C37.1417 4.25301 37.0555 3.89341 36.8865 3.56681C36.7142 3.2435 36.4755 2.98618 36.1673 2.79814L36.1706 2.79483Z" fill="var(--fill-0, white)"/>
<path id="Vector_5" d="M42.8614 3.12084H45.9902L42.6725 7.45907V7.76918H46.7459V7.27103H43.4944L46.8022 2.93279V2.62269H42.8614V3.12084Z" fill="var(--fill-0, white)"/>
<path id="Vector_6" d="M53.03 2.62269H52.4632V7.76918H53.03V2.62269Z" fill="var(--fill-0, white)"/>
<path id="Vector_7" d="M52.7509 0.517961C52.625 0.517961 52.5189 0.560843 52.4327 0.646618C52.3466 0.732393 52.3035 0.837969 52.3035 0.963333C52.3035 1.0887 52.3466 1.19756 52.4327 1.28993C52.5189 1.38231 52.625 1.42849 52.7509 1.42849C52.8769 1.42849 52.9829 1.38231 53.0724 1.28993C53.1619 1.19756 53.205 1.0887 53.205 0.963333C53.205 0.837969 53.1619 0.732393 53.0724 0.646618C52.9829 0.560843 52.8769 0.517961 52.7509 0.517961Z" fill="var(--fill-0, white)"/>
<path id="Vector_8" d="M63.4536 3.65918C63.4039 3.56021 63.3476 3.46454 63.2813 3.37547C63.0758 3.10165 62.8173 2.8905 62.5024 2.73875C62.1875 2.58699 61.8296 2.51111 61.4285 2.51111C60.938 2.51111 60.4972 2.62989 60.1061 2.87072C59.7117 3.11155 59.4001 3.43484 59.1714 3.84062C58.9427 4.2464 58.8267 4.70167 58.8267 5.20313C58.8267 5.70458 58.9427 6.16645 59.1714 6.56893C59.4001 6.97142 59.7117 7.29142 60.1061 7.52565C60.5005 7.76318 60.9479 7.87865 61.4517 7.87865C61.8362 7.87865 62.1875 7.80277 62.4991 7.65102C62.8106 7.49926 63.0692 7.28482 63.2713 7.0077C63.3409 6.91203 63.4006 6.80976 63.4536 6.70089V7.76649H64.0204V2.61999H63.4536V3.65588V3.65918ZM62.9465 6.75698C62.5952 7.15287 62.1212 7.3475 61.528 7.3475C61.1203 7.3475 60.7557 7.25513 60.4375 7.07038C60.1193 6.88564 59.8675 6.63161 59.6852 6.305C59.5029 5.9817 59.4134 5.60891 59.4134 5.18664C59.4134 4.76436 59.5029 4.40476 59.6852 4.07815C59.8675 3.75485 60.116 3.50082 60.4309 3.31608C60.7458 3.13133 61.107 3.03896 61.5147 3.03896C61.9224 3.03896 62.2505 3.12804 62.5422 3.30948C62.8338 3.49093 63.0625 3.74165 63.2249 4.06826C63.3873 4.39156 63.4702 4.76766 63.4702 5.19653C63.4702 5.83984 63.2945 6.35779 62.9432 6.75038L62.9465 6.75698Z" fill="var(--fill-0, white)"/>
<path id="Vector_9" d="M77.6032 2.62269H77.0364V7.76918H77.6032V2.62269Z" fill="var(--fill-0, white)"/>
<path id="Vector_10" d="M77.3288 0.517961C77.2029 0.517961 77.0968 0.560843 77.0106 0.646618C76.9244 0.732393 76.8814 0.837969 76.8814 0.963333C76.8814 1.0887 76.9244 1.19756 77.0106 1.28993C77.0968 1.38231 77.2029 1.42849 77.3288 1.42849C77.4548 1.42849 77.5608 1.38231 77.6503 1.28993C77.7398 1.19756 77.7829 1.0887 77.7829 0.963333C77.7829 0.837969 77.7398 0.732393 77.6503 0.646618C77.5608 0.560843 77.4548 0.517961 77.3288 0.517961Z" fill="var(--fill-0, white)"/>
<path id="Vector_11" d="M90.6 2.75502C90.3116 2.59336 89.9802 2.51088 89.6089 2.51088C89.2377 2.51088 88.8997 2.59336 88.5981 2.75502C88.2931 2.91667 88.0512 3.1443 87.8689 3.43462C87.8291 3.4973 87.796 3.56328 87.7661 3.62926C87.7396 3.56328 87.7098 3.5006 87.6733 3.43792C87.501 3.1443 87.2723 2.91337 86.9839 2.75171C86.6956 2.59006 86.3642 2.50759 85.9929 2.50759C85.6217 2.50759 85.287 2.59006 84.9854 2.75171C84.7003 2.90677 84.4716 3.1212 84.3026 3.39832V2.61975H83.7358V7.76625H84.3026V4.55629C84.3026 4.24618 84.3755 3.97565 84.518 3.74802C84.6639 3.52039 84.8528 3.34224 85.0914 3.21688C85.3301 3.09152 85.5919 3.02883 85.8802 3.02883C86.3111 3.02883 86.6658 3.1674 86.9442 3.44782C87.2226 3.72823 87.3618 4.10102 87.3618 4.56618V7.76625H87.9286V4.55629C87.9286 4.24618 87.9981 3.97565 88.1407 3.74802C88.2799 3.52039 88.4721 3.34224 88.7141 3.21688C88.956 3.09152 89.2212 3.02883 89.5095 3.02883C89.9404 3.02883 90.295 3.1674 90.5734 3.44782C90.8518 3.72823 90.9911 4.10102 90.9911 4.56618V7.76625H91.5578V4.4903C91.5578 4.09112 91.4717 3.74473 91.296 3.44451C91.1203 3.1443 90.8883 2.91667 90.6 2.75171V2.75502Z" fill="var(--fill-0, white)"/>
<path id="Vector_12" d="M104.417 2.75502C104.129 2.59336 103.797 2.51088 103.426 2.51088C103.055 2.51088 102.717 2.59336 102.415 2.75502C102.11 2.91667 101.868 3.1443 101.686 3.43462C101.646 3.4973 101.613 3.56328 101.583 3.62926C101.557 3.56328 101.527 3.5006 101.49 3.43792C101.318 3.1443 101.089 2.91337 100.801 2.75171C100.513 2.59006 100.181 2.50759 99.8099 2.50759C99.4387 2.50759 99.104 2.59006 98.8024 2.75171C98.5173 2.90677 98.2886 3.1212 98.1196 3.39832V2.61975H97.5528V7.76625H98.1196V4.55629C98.1196 4.24618 98.1925 3.97565 98.335 3.74802C98.4809 3.52039 98.6698 3.34224 98.9084 3.21688C99.147 3.09152 99.4089 3.02883 99.6972 3.02883C100.128 3.02883 100.483 3.1674 100.761 3.44782C101.04 3.72823 101.179 4.10102 101.179 4.56618V7.76625H101.746V4.55629C101.746 4.24618 101.815 3.97565 101.958 3.74802C102.097 3.52039 102.289 3.34224 102.531 3.21688C102.773 3.09152 103.038 3.02883 103.327 3.02883C103.757 3.02883 104.112 3.1674 104.39 3.44782C104.669 3.72823 104.808 4.10102 104.808 4.56618V7.76625H105.375V4.4903C105.375 4.09112 105.289 3.74473 105.113 3.44451C104.937 3.1443 104.705 2.91667 104.417 2.75171V2.75502Z" fill="var(--fill-0, white)"/>
<path id="Vector_13" d="M115.067 2.86646C114.662 2.62893 114.208 2.51346 113.704 2.51346C113.201 2.51346 112.756 2.63223 112.352 2.86646C111.948 3.10399 111.626 3.4207 111.391 3.82318C111.152 4.22566 111.036 4.67763 111.036 5.17909C111.036 5.68054 111.156 6.1358 111.391 6.54488C111.63 6.95396 111.948 7.28057 112.352 7.5181C112.756 7.75893 113.207 7.8777 113.704 7.8777C114.201 7.8777 114.662 7.75893 115.067 7.5181C115.471 7.27727 115.792 6.95397 116.028 6.54819C116.266 6.1424 116.382 5.68384 116.382 5.17579C116.382 4.66773 116.263 4.22236 116.028 3.81988C115.789 3.41739 115.471 3.09739 115.067 2.86316V2.86646ZM115.524 6.28096C115.342 6.61087 115.093 6.86819 114.778 7.05953C114.463 7.25088 114.105 7.34655 113.704 7.34655C113.303 7.34655 112.959 7.25088 112.64 7.05953C112.326 6.86819 112.074 6.61086 111.888 6.28426C111.702 5.96095 111.61 5.59146 111.61 5.17579C111.61 4.76011 111.702 4.39721 111.888 4.0805C112.074 3.7638 112.322 3.50977 112.64 3.32173C112.959 3.13368 113.31 3.03801 113.704 3.03801C114.099 3.03801 114.463 3.13368 114.778 3.32173C115.093 3.50977 115.342 3.7638 115.524 4.0805C115.706 4.39721 115.796 4.76011 115.796 5.16589C115.796 5.57167 115.706 5.95106 115.524 6.27766V6.28096Z" fill="var(--fill-0, white)"/>
<path id="Vector_14" d="M126.087 2.86686C125.703 2.62933 125.265 2.51386 124.774 2.51386C124.397 2.51386 124.045 2.58645 123.724 2.7349C123.402 2.88336 123.131 3.0945 122.912 3.37162C122.836 3.46729 122.773 3.56955 122.716 3.67512V0H122.149V7.76923H122.716V6.70364C122.773 6.80591 122.832 6.90818 122.905 7.00056C123.121 7.27768 123.389 7.49211 123.711 7.64716C124.032 7.80222 124.387 7.88139 124.774 7.88139C125.265 7.88139 125.703 7.76264 126.087 7.5284C126.471 7.29417 126.776 6.97417 126.998 6.57169C127.221 6.1692 127.333 5.71393 127.333 5.20588C127.333 4.69783 127.221 4.23926 126.998 3.83348C126.776 3.4277 126.471 3.1077 126.087 2.87017V2.86686ZM126.481 6.30776C126.306 6.63106 126.064 6.88839 125.752 7.07314C125.441 7.25788 125.079 7.35025 124.672 7.35025C124.287 7.35025 123.943 7.25788 123.644 7.07314C123.346 6.88839 123.111 6.63436 122.945 6.31435C122.779 5.99434 122.693 5.62155 122.693 5.20258C122.693 4.7836 122.779 4.40091 122.948 4.0776C123.117 3.7576 123.356 3.50358 123.654 3.31883C123.956 3.13408 124.301 3.04171 124.695 3.04171C125.089 3.04171 125.451 3.13408 125.759 3.31883C126.067 3.50358 126.309 3.7576 126.481 4.0776C126.657 4.39761 126.743 4.77041 126.743 5.18939C126.743 5.60837 126.657 5.98115 126.481 6.30776Z" fill="var(--fill-0, white)"/>
<path id="Vector_15" d="M133.684 2.62269H133.117V7.76918H133.684V2.62269Z" fill="var(--fill-0, white)"/>
<path id="Vector_16" d="M133.405 0.517961C133.279 0.517961 133.173 0.560843 133.087 0.646618C133 0.732393 132.957 0.837969 132.957 0.963333C132.957 1.0887 133 1.19756 133.087 1.28993C133.173 1.38231 133.279 1.42849 133.405 1.42849C133.531 1.42849 133.637 1.38231 133.726 1.28993C133.816 1.19756 133.859 1.0887 133.859 0.963333C133.859 0.837969 133.816 0.732393 133.726 0.646618C133.637 0.560843 133.531 0.517961 133.405 0.517961Z" fill="var(--fill-0, white)"/>
<path id="Vector_17" d="M140.381 0H139.814V7.76923H140.381V0Z" fill="var(--fill-0, white)"/>
<path id="Vector_18" d="M146.778 0.517961C146.652 0.517961 146.546 0.560843 146.46 0.646618C146.373 0.732393 146.33 0.837969 146.33 0.963333C146.33 1.0887 146.373 1.19756 146.46 1.28993C146.546 1.38231 146.652 1.42849 146.778 1.42849C146.904 1.42849 147.01 1.38231 147.099 1.28993C147.189 1.19756 147.232 1.0887 147.232 0.963333C147.232 0.837969 147.189 0.732393 147.099 0.646618C147.01 0.560843 146.904 0.517961 146.778 0.517961Z" fill="var(--fill-0, white)"/>
<path id="Vector_19" d="M147.057 2.62269H146.49V7.76918H147.057V2.62269Z" fill="var(--fill-0, white)"/>
<path id="Vector_20" d="M157.481 3.65918C157.431 3.56021 157.374 3.46454 157.308 3.37547C157.103 3.10165 156.844 2.8905 156.529 2.73875C156.214 2.58699 155.856 2.51111 155.455 2.51111C154.965 2.51111 154.524 2.62989 154.133 2.87072C153.739 3.11155 153.427 3.43484 153.198 3.84062C152.97 4.2464 152.854 4.70167 152.854 5.20313C152.854 5.70458 152.97 6.16645 153.198 6.56893C153.427 6.97142 153.739 7.29142 154.133 7.52565C154.527 7.76318 154.975 7.87865 155.479 7.87865C155.863 7.87865 156.214 7.80277 156.526 7.65102C156.838 7.49926 157.096 7.28482 157.298 7.0077C157.368 6.91203 157.428 6.80976 157.481 6.70089V7.76649H158.047V2.61999H157.481V3.65588V3.65918ZM156.973 6.75698C156.622 7.15287 156.148 7.3475 155.555 7.3475C155.147 7.3475 154.783 7.25513 154.464 7.07038C154.146 6.88564 153.894 6.63161 153.712 6.305C153.53 5.9817 153.44 5.60891 153.44 5.18664C153.44 4.76436 153.53 4.40476 153.712 4.07815C153.894 3.75485 154.143 3.50082 154.458 3.31608C154.773 3.13133 155.134 3.03896 155.542 3.03896C155.949 3.03896 156.277 3.12804 156.569 3.30948C156.861 3.49093 157.089 3.74165 157.252 4.06826C157.414 4.39156 157.497 4.76766 157.497 5.19653C157.497 5.83984 157.321 6.35779 156.97 6.75038L156.973 6.75698Z" fill="var(--fill-0, white)"/>
<path id="Vector_21" d="M166.256 2.51111C165.716 2.51111 165.278 2.69256 164.944 3.05875C164.857 3.15113 164.785 3.2567 164.722 3.36886V2.62329H164.155V7.76978H164.722V4.70498C164.722 4.16724 164.854 3.75485 165.123 3.47113C165.391 3.18742 165.736 3.04556 166.157 3.04556C166.379 3.04556 166.571 3.07855 166.737 3.14453C166.899 3.21051 167.052 3.32268 167.194 3.47774L167.572 3.07855C167.386 2.8806 167.184 2.73545 166.965 2.64637C166.747 2.5573 166.511 2.51441 166.259 2.51441L166.256 2.51111Z" fill="var(--fill-0, white)"/>
<path id="Vector_22" d="M177.543 3.69547C177.338 3.32598 177.056 3.03567 176.691 2.82783C176.327 2.61669 175.912 2.51111 175.445 2.51111C174.948 2.51111 174.497 2.62988 174.093 2.86411C173.688 3.10164 173.37 3.41835 173.142 3.82083C172.913 4.22331 172.797 4.67858 172.797 5.18664C172.797 5.69469 172.916 6.15325 173.152 6.55904C173.39 6.96482 173.712 7.28482 174.119 7.52235C174.527 7.75988 174.991 7.87535 175.511 7.87535C175.926 7.87535 176.313 7.79617 176.668 7.63782C177.023 7.47946 177.324 7.25843 177.57 6.97801L177.192 6.61182C177 6.85595 176.761 7.0374 176.473 7.15946C176.184 7.28153 175.876 7.34091 175.545 7.34091C175.107 7.34091 174.726 7.25183 174.398 7.07038C174.073 6.88894 173.818 6.63491 173.635 6.30831C173.49 6.04108 173.403 5.73758 173.377 5.39448H177.802C177.815 5.2988 177.828 5.21633 177.835 5.14705C177.841 5.07777 177.845 5.01838 177.845 4.97549C177.845 4.48724 177.742 4.06166 177.54 3.69217L177.543 3.69547ZM173.629 4.04846C173.804 3.73176 174.046 3.48104 174.358 3.30289C174.67 3.12474 175.027 3.03237 175.438 3.03237C175.849 3.03237 176.168 3.11814 176.449 3.28639C176.731 3.45464 176.947 3.69547 177.096 3.99898C177.225 4.2662 177.288 4.56971 177.295 4.91281H173.384C173.41 4.5928 173.493 4.30249 173.632 4.04846H173.629Z" fill="var(--fill-0, white)"/>
</g>
</svg>
