<svg preserveAspectRatio="none" width="100%" height="100%" overflow="visible" style="display: block;" viewBox="0 0 19 20" fill="none" xmlns="http://www.w3.org/2000/svg">
<g id="Livello_1" clip-path="url(#clip0_4062_16)">
<path id="Vector" d="M4.71193 20C4.17053 20 3.62348 19.9859 3.09053 19.9438C2.13743 19.8678 1.96542 19.2941 1.92312 18.74V18.6978L1.91466 10.7327C1.86955 10.7327 1.82443 10.7355 1.78213 10.7383C1.23226 10.7664 0.479371 10.8058 0.143811 10.2039C-0.231226 9.52609 0.197388 9.01983 0.406055 8.77795C0.840309 8.26888 1.3507 7.78231 1.84699 7.31261C2.26714 6.91323 2.7014 6.49979 3.06797 6.09197C3.10463 6.04134 3.14411 5.97103 3.14975 5.8979C3.2287 5.01195 3.19205 4.02475 3.15539 3.0713L3.14693 2.82379C3.13283 2.43285 3.22588 2.12628 3.42327 1.91816C3.57836 1.75222 3.79549 1.65659 4.03235 1.65096C4.32562 1.64253 5.6594 1.64253 5.95548 1.65096C6.22618 1.6594 6.46023 1.76347 6.63224 1.94909C6.71965 2.04191 6.78169 2.14878 6.82962 2.26129L8.82042 0.244691C9.12214 -2.16278e-09 9.53666 -0.0675011 9.90324 0.0703136C10.188 0.17719 10.5123 0.500633 11.175 1.22908C11.2878 1.35283 11.3865 1.45971 11.4485 1.5244C12.0266 2.10378 12.6046 2.68598 13.1855 3.26536C14.7956 4.87695 16.4622 6.54479 18.0554 8.22107C18.0977 8.26607 18.1569 8.32513 18.2245 8.39263C18.5206 8.69076 18.7237 8.89889 18.8224 9.0592C19.0282 9.39108 19.0564 9.77359 18.8928 10.1027C18.7237 10.4542 18.3684 10.6905 17.9482 10.7383C17.8354 10.7524 17.6831 10.7467 17.4181 10.7411C17.3307 10.7411 17.2066 10.7355 17.091 10.7355C17.0402 12.2008 17.0487 13.6971 17.0571 15.1455C17.0656 16.4168 17.0712 17.7331 17.0402 19.0269V19.0915L17.0205 19.1562C16.8316 19.8734 16.1181 19.9241 15.8503 19.9438C14.8661 20.0141 13.2814 20.0141 12.2465 19.9438C11.6938 19.9044 11.1186 19.7412 11.0368 18.8187C10.9663 18.0059 10.9973 17.1453 11.0283 16.3128C11.0537 15.5702 11.0819 14.8024 11.034 14.0965C11.0227 14.0149 10.9861 13.9587 10.8648 13.9474C10.2388 13.8912 8.81478 13.8827 8.15494 13.9474C8.06189 13.9558 8.01959 13.9755 8.01113 13.984C7.99985 13.998 7.95755 14.0655 7.93782 14.403C7.88988 15.1596 7.91244 15.9696 7.935 16.7515C7.95474 17.4856 7.97729 18.2422 7.94064 18.979V19.0212C7.87014 19.5641 7.4951 19.8734 6.82116 19.9381H6.79015C6.13877 19.9691 5.42817 19.9972 4.70629 19.9972L4.71193 20ZM3.06797 18.8103C3.09335 18.8159 3.13001 18.8187 3.18077 18.8244C4.34817 18.9144 5.62274 18.8722 6.73093 18.8244C6.77041 18.8215 6.80143 18.8159 6.82398 18.8131C6.84936 18.155 6.82962 17.4603 6.8127 16.7909C6.79015 15.9837 6.76759 15.1484 6.81834 14.3412C6.84372 13.9249 6.90576 12.9546 8.04779 12.8393C8.79504 12.7633 10.2783 12.7746 10.972 12.8393C11.6064 12.8955 12.0858 13.3568 12.1619 13.984V14.0121C12.2183 14.7799 12.1901 15.5843 12.1619 16.3606C12.1309 17.1959 12.1027 17.9834 12.1676 18.7287C12.1676 18.7625 12.1732 18.7906 12.176 18.8103C12.2099 18.8159 12.2578 18.8215 12.3283 18.8272C13.3039 18.8947 14.8464 18.8947 15.7713 18.8272C15.8305 18.8215 15.8813 18.8187 15.9207 18.8131C15.9461 17.5981 15.9405 16.3578 15.932 15.1568C15.9236 13.5649 15.9123 11.9167 15.98 10.2967V10.2067L16.0928 9.91984L16.1745 9.83547C16.4001 9.60484 16.7075 9.60203 17.4435 9.62171C17.5816 9.62453 17.7677 9.63015 17.8213 9.62453C17.8241 9.62453 17.8298 9.62453 17.8326 9.62453C17.7367 9.50921 17.5281 9.29827 17.4209 9.19139C17.3448 9.11546 17.2799 9.04795 17.2348 9.00014C15.6529 7.3323 13.992 5.6729 12.3847 4.06413C11.8038 3.48193 11.2229 2.90255 10.6449 2.32035C10.5744 2.25004 10.4672 2.13191 10.3403 1.99128C10.1457 1.77753 9.70585 1.29658 9.5141 1.14471L7.18774 3.50162L5.80039 5.05414L5.79475 3.58881C5.79475 3.49599 5.79757 3.39193 5.80321 3.28505C5.80885 3.14724 5.82013 2.91942 5.80321 2.78161C5.46483 2.77598 4.68091 2.77598 4.27204 2.78161C4.27204 2.78442 4.27204 2.78723 4.27204 2.79004L4.2805 3.03755C4.31998 4.02756 4.35945 5.04852 4.27204 6.00759C4.24666 6.28041 4.13951 6.55323 3.95622 6.79511L3.92802 6.82886C3.5276 7.28168 3.06797 7.71762 2.62526 8.1395C2.15153 8.58951 1.66088 9.05358 1.26892 9.51765C1.24354 9.54859 1.20689 9.59078 1.17587 9.63015C1.32814 9.64703 1.57628 9.63578 1.72855 9.63015C1.95978 9.6189 2.17691 9.60765 2.37148 9.63859C2.70985 9.69203 2.95518 9.91703 3.03132 10.2377L3.04541 10.2995L3.05105 18.6894C3.05669 18.7484 3.06233 18.7934 3.06797 18.8215V18.8103Z" fill="var(--fill-0, #727272)"/>
</g>
<defs>
<clipPath id="clip0_4062_16">
<rect width="19" height="20" fill="white"/>
</clipPath>
</defs>
</svg>
