<svg preserveAspectRatio="none" width="100%" height="100%" overflow="visible" style="display: block;" viewBox="0 0 17.0003 18.6424" fill="none" xmlns="http://www.w3.org/2000/svg">
<g id="Group">
<path id="Vector" d="M9.06809 5.19451H16.5092C16.6978 5.19451 16.9726 5.45091 16.9899 5.64322C16.9753 6.5182 17.0707 7.40013 16.8719 8.25802C16.4677 9.99944 15.0349 11.4236 13.2782 11.8274C12.5599 11.9925 11.8335 11.9625 11.0996 11.9636L12.3077 17.9795C12.3541 18.3449 12.117 18.6163 11.7505 18.6424H5.23193C4.88167 18.6125 4.64403 18.33 4.69469 17.9817L5.90066 11.9636H4.82886C2.6039 11.9508 0.616584 10.3958 0.124603 8.2436C-0.0699255 7.39105 0.025453 6.51339 0.0103648 5.64375C0.0276084 5.45145 0.302428 5.19504 0.491029 5.19504H7.93217L7.93109 1.71914C7.99521 0.292887 9.63227 -0.509449 10.8043 0.360728C11.2225 0.671085 11.5312 1.24853 11.5178 1.77256C11.5054 2.25279 10.9369 2.514 10.5677 2.19189C10.3209 1.97715 10.4384 1.72128 10.3085 1.46915C10.0795 1.02525 9.41996 1.00067 9.16185 1.43336C9.14299 1.46487 9.06647 1.62513 9.06647 1.64756V5.19504L9.06809 5.19451ZM15.8777 6.31948H1.12311C1.12527 6.812 1.1021 7.30504 1.184 7.79275C1.46475 9.4706 2.9547 10.7574 4.66451 10.8386H12.318C13.9572 10.7692 15.4083 9.58919 15.7737 8.00375C15.9019 7.4466 15.8788 6.88785 15.8777 6.31948ZM5.93784 17.5164H11.0635L9.94481 11.9652L7.06568 11.9625L5.93784 17.5164Z" fill="var(--fill-0, #727272)"/>
</g>
</svg>
