<svg preserveAspectRatio="none" width="100%" height="100%" overflow="visible" style="display: block;" viewBox="0 0 34 35" fill="none" xmlns="http://www.w3.org/2000/svg">
<g id="Livello_1" clip-path="url(#clip0_4062_27)">
<path id="Vector" d="M29.0485 18.0002H26.7491V20.3706H29.0485V18.0002Z" fill="var(--fill-0, #02033B)"/>
<path id="Vector_2" d="M29.9937 13.7234H26.3965V7.65934L18.9665 0H7.60352V13.7234H4.00631C1.7972 13.7234 0 15.5761 0 17.8534V28.4197C0 30.6984 1.7972 32.5511 4.00631 32.5511H7.35806V35H26.412V32.5511H29.9937C32.2028 32.5511 34 30.697 34 28.4197V17.8534C34 15.5761 32.2028 13.7234 29.9937 13.7234ZM19.5449 7.06311V3.47557L23.025 7.06311H19.5449ZM24.4215 9.09901V13.7234H9.57846V2.0359H17.5699V9.09901H24.4215ZM6.04614 23.3794V27.1371H7.35806V30.5152H4.00631C2.88623 30.5152 1.97494 29.5758 1.97494 28.4197V17.8534C1.97494 16.6987 2.88623 15.7593 4.00631 15.7593H29.9937C31.1138 15.7593 32.0251 16.6987 32.0251 17.8534V28.4197C32.0251 29.5758 31.1138 30.5152 29.9937 30.5152H26.412V27.1371H27.9525V23.3794H6.04614ZM9.69272 32.8303V25.5491H24.3059V32.8303H9.69272Z" fill="var(--fill-0, #02033B)"/>
<path id="Vector_3" d="M22.4508 27.9442H11.5506V30.1517H22.4508V27.9442Z" fill="var(--fill-0, #02033B)"/>
</g>
<defs>
<clipPath id="clip0_4062_27">
<rect width="34" height="35" fill="white"/>
</clipPath>
</defs>
</svg>
