<svg preserveAspectRatio="none" width="100%" height="100%" overflow="visible" style="display: block;" viewBox="0 0 64 62" fill="none" xmlns="http://www.w3.org/2000/svg">
<g id="Livello_1" clip-path="url(#clip0_4042_41)">
<g id="RV3ZRp">
<path id="Vector" d="M13.6451 5.35076C14.5296 5.55334 15.3625 5.83953 16.0533 6.44728L24.5238 14.8882C25.9344 16.6536 25.9151 19.0975 24.4366 20.8146C22.4126 23.1684 19.7075 25.2714 17.6157 27.6027C16.9152 28.5095 17.5705 30.1045 18.003 31.0338C20.0432 35.4359 26.1765 41.4877 30.4667 43.7611C31.4383 44.2756 33.5463 45.2596 34.5308 44.5136C36.8712 42.4299 38.9824 39.7352 41.3453 37.719C43.2467 36.0951 45.9131 36.198 47.7014 37.9216C50.1483 40.6516 53.2053 43.0826 55.6199 45.8127C56.3172 46.6005 56.7433 47.4237 56.9241 48.472V49.5717C56.7691 50.2566 56.5786 50.9319 56.1816 51.5204C53.8412 53.9578 51.4395 56.5946 48.9475 58.8777C47.4335 60.2668 45.7872 61.225 43.7535 61.6817L41.723 62H39.7506L37.1843 61.6366C30.9896 60.2732 25.3308 56.8518 20.4015 52.9802C12.3313 46.6391 2.41784 35.3427 0.38738 25.0656L0.0129219 22.461C0.0419747 21.8146 -0.0258151 21.1361 0.0129219 20.4962C0.332502 15.332 3.26038 13.2547 6.56916 9.94907C8.07668 8.44417 10.3105 5.5855 12.4862 5.35076H13.6451ZM20.2401 21.731C20.324 21.8725 20.4112 22.0269 20.5823 21.8886C21.2925 21.0558 22.3028 20.3194 22.9872 19.4865C23.8039 18.4961 23.8039 17.1199 22.9872 16.1327L14.6587 7.83963C13.5967 7.05181 12.2635 7.14507 11.266 7.98112C10.459 8.6564 9.74882 9.59535 8.9418 10.2899L8.8837 10.4089L20.2369 21.7278L20.2401 21.731ZM8.68033 13.0168C8.28327 12.6309 7.87976 12.2514 7.49562 11.8527H7.37941C5.65884 13.676 3.57996 15.1905 2.65027 17.6086C0.209835 23.9627 4.87765 32.5515 8.48987 37.6836C12.1182 42.8415 16.9087 47.7967 21.8864 51.6779C27.2192 55.8325 36.2643 61.3665 43.2886 59.778C46.4489 59.0642 48.1533 56.8711 50.3388 54.7199L50.4195 54.5816L38.8791 43.0665L38.7338 43.0955C37.7912 43.9412 36.9358 45.0313 35.9802 45.8448C33.514 47.9478 29.8211 45.7709 27.584 44.266C24.4398 42.1501 21.2828 39.0792 18.9585 36.0983C17.1573 33.7863 13.813 29.0112 16.1953 26.2457C17.0572 25.2457 18.2096 24.3517 19.0974 23.3581C15.6239 19.911 12.1828 16.4285 8.68033 13.0168ZM43.9762 38.5454C43.5469 38.5969 43.1498 38.8027 42.8012 39.0503L40.2187 41.6195L51.8495 53.2086C52.5694 52.395 53.5378 51.6618 54.2286 50.8419C55.2325 49.6521 55.2067 48.3369 54.1995 47.1697C51.8172 44.4075 48.6472 41.9379 46.1939 39.195C45.5225 38.6419 44.851 38.4425 43.9762 38.5486V38.5454Z" fill="var(--fill-0, #050038)"/>
</g>
<path id="Vector_2" d="M50.1547 0.919662L48.686 14.5667C48.5698 15.2612 47.795 15.5699 47.2301 15.139L43.9116 11.8913L34.9634 20.7985C34.5566 21.1747 34.1273 21.2198 33.6786 20.8757L29.1335 16.3417C28.8462 15.9783 28.9269 15.3481 29.3239 15.1005L38.227 6.22862L34.8924 2.83938C34.547 2.33774 34.8246 1.63996 35.4024 1.49204C35.5444 1.45667 35.751 1.44059 35.9028 1.41808C40.2348 0.784607 44.738 0.633473 49.083 0.0096468C49.6383 -0.0771744 50.1515 0.353716 50.1547 0.919662Z" fill="var(--fill-0, #050038)"/>
<path id="Vector_3" d="M63.6385 17.1874L54.7322 26.0592L58.0668 29.4485C58.4122 29.9501 58.1378 30.6479 57.5567 30.7958C57.4179 30.8344 57.2113 30.8505 57.0564 30.873C52.7243 31.5032 48.2244 31.6544 43.8793 32.2782C43.3209 32.365 42.8076 31.9341 42.8044 31.3682L44.2764 17.7212C44.3926 17.0266 45.1674 16.7179 45.7323 17.1488L49.0475 20.3966L57.9958 11.4893C58.4025 11.1131 58.8318 11.0713 59.2805 11.4122L63.8289 15.9462C64.113 16.3095 64.0323 16.9398 63.6385 17.1874Z" fill="var(--fill-0, #050038)"/>
</g>
<defs>
<clipPath id="clip0_4042_41">
<rect width="64" height="62" fill="white"/>
</clipPath>
</defs>
</svg>
