<svg preserveAspectRatio="none" width="100%" height="100%" overflow="visible" style="display: block;" viewBox="0 0 177.997 20.3324" fill="none" xmlns="http://www.w3.org/2000/svg">
<g id="Group">
<path id="Vector" d="M9.84046 12.312H16.1743C16.055 13.0807 15.8362 13.7636 15.5147 14.3574C15.0043 15.3075 14.2718 16.0234 13.3173 16.5018C12.3627 16.9801 11.2226 17.221 9.90012 17.221C8.65059 17.221 7.53695 16.9208 6.55257 16.317C5.5682 15.7166 4.78931 14.882 4.21261 13.8197C3.6359 12.7574 3.34755 11.5301 3.34755 10.1346C3.34755 8.73915 3.63259 7.51851 4.19935 6.46611C4.76611 5.41372 5.56488 4.58896 6.59566 3.99513C7.62644 3.40131 8.82294 3.1077 10.1852 3.1077C11.3187 3.1077 12.3793 3.32873 13.3637 3.7708C14.3481 4.21287 15.1336 4.84959 15.7169 5.67435L17.9309 3.47389C17.0228 2.36212 15.8959 1.50766 14.5535 0.903938C13.2112 0.303513 11.7529 0 10.1852 0C8.74671 0 7.40769 0.257327 6.17142 0.775276C4.93183 1.29322 3.85465 2.01571 2.93656 2.94934C2.01847 3.87967 1.29925 4.95845 0.778885 6.1824C0.258523 7.40634 0 8.72265 0 10.1346C0 11.5466 0.258523 12.8695 0.778885 14.1001C1.29925 15.3339 2.01184 16.416 2.91999 17.3463C3.82814 18.2767 4.88543 19.0091 6.0985 19.5336C7.30826 20.0615 8.59425 20.3254 9.95647 20.3254C11.8291 20.3254 13.4929 19.9394 14.9513 19.1674C16.4063 18.3954 17.5564 17.2309 18.3983 15.6671C19.2401 14.1067 19.661 12.1471 19.661 9.79484V9.34287H9.84378V12.3054L9.84046 12.312Z" fill="var(--fill-0, white)"/>
<path id="Vector_2" d="M29.5884 0.290105L21.4184 20.048H24.8787L26.4066 16.2376H34.9412L36.4559 20.048H39.9725L31.8588 0.290105H29.5884ZM27.5368 13.4137L30.6921 5.53558L33.8209 13.4137H27.5368Z" fill="var(--fill-0, white)"/>
<path id="Vector_3" d="M53.5341 10.9566C54.4787 10.4882 55.2112 9.82835 55.7316 8.98049C56.2519 8.13264 56.5104 7.13633 56.5104 5.98827C56.5104 4.8402 56.2486 3.92307 55.7316 3.06532C55.2112 2.21087 54.4787 1.53127 53.5341 1.03312C52.5895 0.534961 51.4924 0.284232 50.2429 0.284232H42.8087V20.0422H46.0701V11.6593H46.9119L53.7031 20.0422H57.8163L50.8461 11.6362C51.8471 11.5702 52.742 11.3459 53.5308 10.9533L53.5341 10.9566ZM46.0701 3.11151H50.1004C51.1013 3.11151 51.8769 3.39522 52.4271 3.95936C52.974 4.52349 53.2491 5.21959 53.2491 6.04765C53.2491 6.97138 52.9707 7.69057 52.4138 8.20522C51.857 8.72317 51.0748 8.98049 50.0739 8.98049H46.0734V3.10821L46.0701 3.11151Z" fill="var(--fill-0, white)"/>
<path id="Vector_4" d="M75.3927 3.12375C74.4746 2.22971 73.4008 1.53362 72.1711 1.03546C70.9415 0.53731 69.6091 0.286582 68.1706 0.286582H60.6237V20.0445H68.227C69.6455 20.0445 70.968 19.7971 72.1976 19.2956C73.4273 18.7975 74.4945 18.1014 75.4027 17.2073C76.3108 16.3133 77.0201 15.2642 77.5305 14.0601C78.0409 12.8559 78.2961 11.5561 78.2961 10.1639C78.2961 8.7717 78.0409 7.44879 77.5305 6.25454C77.0201 5.06029 76.3042 4.01449 75.3894 3.12045L75.3927 3.12375ZM74.0868 13.7664C73.5101 14.8122 72.7047 15.6238 71.674 16.2077C70.6432 16.7917 69.4467 17.082 68.0845 17.082H63.8851V3.25241H68.0845C69.4268 3.25241 70.6133 3.54273 71.6441 4.12666C72.6749 4.71059 73.4836 5.51885 74.0703 6.55475C74.6569 7.59065 74.9486 8.7849 74.9486 10.1408C74.9486 11.4967 74.6602 12.7239 74.0835 13.7664H74.0868Z" fill="var(--fill-0, white)"/>
<path id="Vector_5" d="M88.3165 0.290105L80.1465 20.048H83.6067L85.1347 16.2376H93.6693L95.184 20.048H98.7005L90.5869 0.290105H88.3165ZM86.2649 13.4137L89.4202 5.53558L92.549 13.4137H86.2649Z" fill="var(--fill-0, white)"/>
<path id="Vector_6" d="M112.789 9.45153C113.366 9.07214 113.84 8.63337 114.204 8.13521C114.781 7.34344 115.069 6.43291 115.069 5.39701C115.069 4.51287 114.851 3.68481 114.417 2.91284C113.982 2.14086 113.319 1.51075 112.431 1.02249C111.543 0.534234 110.426 0.290105 109.084 0.290105H101.537V20.048H109.339C110.757 20.048 111.954 19.7907 112.928 19.2728C113.903 18.7548 114.639 18.0719 115.142 17.2274C115.643 16.3795 115.895 15.4492 115.895 14.4331C115.895 13.1926 115.543 12.1106 114.844 11.1868C114.317 10.4907 113.631 9.91339 112.792 9.45483L112.789 9.45153ZM108.997 3.11078C109.849 3.11078 110.529 3.32852 111.039 3.76069C111.55 4.19287 111.805 4.83288 111.805 5.68073C111.805 6.52858 111.55 7.1686 111.039 7.60077C110.529 8.03295 109.846 8.25068 108.997 8.25068H104.798V3.11408H108.997V3.11078ZM111.808 16.2937C111.258 16.914 110.482 17.2241 109.481 17.2241H104.801V11.0714H109.481C110.144 11.0714 110.711 11.2132 111.185 11.4936C111.659 11.7774 112.017 12.1534 112.262 12.6219C112.507 13.0937 112.63 13.6017 112.63 14.1461C112.63 14.9543 112.355 15.6702 111.808 16.2904V16.2937Z" fill="var(--fill-0, white)"/>
<path id="Vector_7" d="M122.447 0.290105H119.183V20.0447H121.423H122.447H131.807V17.0822H122.447V0.290105Z" fill="var(--fill-0, white)"/>
<path id="Vector_8" d="M138.049 0.290105H134.787V20.048H138.049V0.290105Z" fill="var(--fill-0, white)"/>
<path id="Vector_9" d="M154.462 16.6738C153.62 17.04 152.593 17.2247 151.383 17.2247C150.399 17.2247 149.5 17.0565 148.688 16.7167C147.876 16.3769 147.17 15.8952 146.574 15.2618C145.977 14.6317 145.52 13.8828 145.198 13.0185C144.877 12.1541 144.714 11.204 144.714 10.1681C144.714 9.13218 144.874 8.18206 145.198 7.31771C145.52 6.45337 145.977 5.70448 146.574 5.07437C147.17 4.44425 147.873 3.95929 148.688 3.61949C149.5 3.27969 150.399 3.11144 151.383 3.11144C152.5 3.11144 153.478 3.28959 154.32 3.64588C155.161 4.00218 155.874 4.50364 156.461 5.14365L158.675 2.94319C157.767 2.03926 156.726 1.32666 155.553 0.798819C154.379 0.270973 152.991 0.00704709 151.383 0.00704709C149.945 0.00704709 148.615 0.270973 147.396 0.798819C146.176 1.32666 145.112 2.04915 144.204 2.97288C143.296 3.89331 142.597 4.9721 142.106 6.20594C141.615 7.43978 141.367 8.75939 141.367 10.1714C141.367 11.5834 141.612 12.9063 142.106 14.1368C142.597 15.3707 143.299 16.4527 144.204 17.3831C145.112 18.3134 146.176 19.0392 147.396 19.5571C148.615 20.0751 149.945 20.3324 151.383 20.3324C152.971 20.3324 154.379 20.0685 155.609 19.5406C156.839 19.0128 157.906 18.2903 158.814 17.3666L156.6 15.1661C156.013 15.8061 155.301 16.3109 154.459 16.6771L154.462 16.6738Z" fill="var(--fill-0, white)"/>
<path id="Vector_10" d="M177.997 20.0447L168.614 9.70226L177.712 0.290105H173.543L165.005 9.26679V0.290105H161.74V20.0447H165.005V10.2532L173.741 20.0447H177.997Z" fill="var(--fill-0, white)"/>
</g>
</svg>
