<svg preserveAspectRatio="none" width="100%" height="100%" overflow="visible" style="display: block;" viewBox="0 0 64 71" fill="none" xmlns="http://www.w3.org/2000/svg">
<g id="Livello_1" clip-path="url(#clip0_4042_149)">
<path id="Vector" d="M37.8549 10.351C41.0528 10.9522 44.2731 11.4707 47.4806 12.0242C48.7859 12.25 50.104 11.9097 49.3987 13.9805L41.5124 21.5131C41.4135 21.7931 41.4837 22.0889 41.506 22.3752C41.7358 25.4639 43.0731 29.3034 43.1433 32.3063C43.1688 33.3401 42.473 33.884 41.4773 33.5882L31.8612 28.3905L22.3568 33.216C21.8365 33.4928 21.2908 33.4164 20.7833 33.1333C20.378 32.8025 20.4993 31.8991 20.5471 31.3997C20.8184 28.435 22.1333 24.9263 22.3472 22.0062C22.3631 21.7803 22.411 21.564 22.328 21.3414L14.63 13.6147C14.2024 12.8417 14.397 11.9319 15.329 11.7252L26.0398 10.3065L31.1782 0.451702C31.9537 -0.219489 32.7037 -0.146326 33.2878 0.703002L37.8549 10.351Z" fill="var(--fill-0, #050038)"/>
<path id="Vector_2" d="M18.5141 63.1334L15.629 46.414L16.3854 46.1436C17.1896 45.8542 18.0099 45.5424 18.8046 45.2371C21.6291 44.1587 24.5462 43.0453 27.6611 42.6445C31.2261 42.1865 34.9729 42.1547 38.5953 42.1228C39.9262 42.1101 41.2986 42.0974 42.6231 42.0656L42.8497 42.0592L43.0539 42.1547C44.1678 42.6795 44.8922 43.7229 44.9433 44.884C44.9912 45.9432 44.4422 46.9103 43.472 47.4765L43.389 47.5242L43.2997 47.556C41.589 48.1413 39.7762 48.5644 38.0208 48.9715C37.5389 49.0829 37.0538 49.1974 36.5687 49.3151L44.0784 50.1135C47.4582 49.4805 50.7008 47.9218 53.8349 46.4108C55.8935 45.4184 58.0254 44.3941 60.2053 43.6179L60.3106 43.5797L60.4223 43.567C61.8553 43.4143 63.1894 44.1873 63.7415 45.4883C64.2904 46.783 63.9298 48.2145 62.8159 49.137C59.1393 52.1875 52.0413 56.3578 49.7083 57.7257L49.2423 58.0024C47.7199 58.9026 46.1465 59.8315 44.388 60.3977L44.2444 60.4422H44.0944C38.1134 60.4613 31.9186 60.4677 25.1621 60.4677C24.8142 60.4677 24.4823 60.4327 24.16 60.3977C23.5312 60.3309 22.9823 60.2705 22.4685 60.4868L18.5014 63.1302L18.5141 63.1334ZM17.7865 47.6642L19.8993 59.911L21.6099 58.7849C22.6248 58.3142 23.5983 58.4159 24.377 58.5018C24.661 58.5336 24.9291 58.5623 25.1749 58.5623C31.8739 58.5623 38.0177 58.5591 43.9475 58.54C45.4508 58.0342 46.887 57.1849 48.2753 56.3642L48.7476 56.0875C51.0455 54.7355 58.0446 50.6257 61.6 47.6737C62.283 47.1075 62.0691 46.4299 61.9861 46.2359C61.8138 45.8319 61.3893 45.4247 60.7351 45.4597C58.6893 46.1977 56.6467 47.1806 54.6711 48.1286C51.3775 49.7127 47.9721 51.3509 44.2858 52.0126L44.1518 52.038L44.0146 52.0253L30.9612 50.6352L31.1335 49.6332C31.2356 49.0415 31.6346 48.6662 32.3176 48.5167C32.3431 48.5103 32.3686 48.5071 32.3942 48.5008C34.0729 47.9314 35.8602 47.5146 37.59 47.1138C39.2624 46.7258 40.989 46.325 42.5816 45.7874C42.8911 45.5806 43.0475 45.3007 43.0348 44.973C43.0188 44.5881 42.7826 44.2159 42.4188 43.9837C41.1613 44.0124 39.8688 44.0251 38.6177 44.0346C35.0527 44.0664 31.3633 44.0983 27.9132 44.5404C25.0281 44.9094 22.2163 45.9846 19.4971 47.0216C18.9386 47.2347 18.3673 47.4542 17.796 47.6642H17.7865Z" fill="var(--fill-0, #050038)"/>
<path id="Vector_3" d="M0.114896 71L0 48.7139L12.6896 46.3918L16.5098 68.0608L0.114896 71ZM1.9245 50.3012L2.02025 68.7192L14.2949 66.518L11.1385 48.6153L1.9245 50.3012Z" fill="var(--fill-0, #050038)"/>
</g>
<defs>
<clipPath id="clip0_4042_149">
<rect width="64" height="71" fill="white"/>
</clipPath>
</defs>
</svg>
