<svg preserveAspectRatio="none" width="100%" height="100%" overflow="visible" style="display: block;" viewBox="0 0 178 35.162" fill="none" xmlns="http://www.w3.org/2000/svg">
<g id="Group 13274">
<g id="Group 13256">
<path id="Vector" d="M77.0865 34.5017H62.7894C57.3029 34.5017 52.8394 30.0856 52.8394 24.6574V10.5122C52.8394 5.08401 57.3029 0.667938 62.7894 0.667938H77.0865C82.5731 0.667938 87.0366 5.08401 87.0366 10.5122V24.6574C87.0366 30.0856 82.5731 34.5017 77.0865 34.5017ZM62.7894 3.67267C58.9776 3.67267 55.8747 6.74088 55.8747 10.5139V24.6591C55.8747 28.4304 58.9759 31.5003 62.7894 31.5003H77.0865C80.8984 31.5003 84.0012 28.4321 84.0012 24.6591V10.5122C84.0012 6.74088 80.9001 3.671 77.0865 3.671H62.7894V3.67267Z" fill="var(--fill-0, white)"/>
<path id="Vector_2" d="M69.9393 26.2824C65.0926 26.2824 61.1491 22.3808 61.1491 17.5856C61.1491 12.7904 65.0926 8.88873 69.9393 8.88873C74.7861 8.88873 78.7296 12.7904 78.7296 17.5856C78.7296 22.3808 74.7861 26.2824 69.9393 26.2824ZM69.9393 11.8918C66.7656 11.8918 64.1844 14.4456 64.1844 17.5856C64.1844 20.7256 66.7656 23.2794 69.9393 23.2794C73.1131 23.2794 75.6943 20.7256 75.6943 17.5856C75.6943 14.4456 73.1131 11.8918 69.9393 11.8918Z" fill="var(--fill-0, white)"/>
<path id="Vector_3" d="M81.0326 9.01512C81.2892 7.94528 80.6206 6.87219 79.5393 6.61831C78.458 6.36443 77.3734 7.02588 77.1168 8.09572C76.8602 9.16556 77.5287 10.2386 78.61 10.4925C79.6914 10.7464 80.776 10.085 81.0326 9.01512Z" fill="var(--fill-0, white)"/>
</g>
<g id="Group 13255">
<path id="Vector_4" d="M0.111419 35.162L2.42758 26.4251C0.83733 23.741 0 20.6895 0 17.5562C0 7.87558 7.9597 0.000473022 17.7443 0.000473022C27.5289 0.000473022 35.4886 7.87558 35.4886 17.5562C35.4886 27.2368 27.5289 35.1119 17.7443 35.1119C14.7208 35.1119 11.7581 34.352 9.13298 32.9089L0.111419 35.162ZM9.58878 29.7789L10.1172 30.0946C12.4114 31.4642 15.05 32.189 17.7443 32.189C25.8982 32.189 32.5327 25.6251 32.5327 17.5579C32.5327 9.49069 25.8998 2.92504 17.7443 2.92504C9.58878 2.92504 2.95598 9.48902 2.95598 17.5562C2.95598 20.3488 3.75448 23.0646 5.2637 25.4079L5.61146 25.9474L4.24067 31.1151L9.58878 29.7789Z" fill="var(--fill-0, white)"/>
<path id="Vector_5" d="M12.6161 9.47259C12.3443 9.4609 11.9762 9.44753 11.6758 9.43751C11.3263 9.42582 10.9836 9.5277 10.6966 9.72479C9.57061 10.4981 7.50598 12.8047 9.86435 16.9468C12.9368 22.2314 17.478 24.8587 21.0349 25.6905C24.5936 26.5222 26.3206 24.1589 26.5147 23.6712C26.6633 23.2954 26.8102 22.5521 26.822 21.9976C26.827 21.7337 26.6869 21.4882 26.4557 21.3579C25.5609 20.8535 23.3258 19.7428 22.4091 19.6409C22.2268 19.6209 22.0495 19.6927 21.9246 19.8263C21.4469 20.3374 20.8611 21.3763 20.3546 21.7554C20.2077 21.8657 20.0153 21.894 19.8397 21.8389C18.8201 21.5249 15.204 19.9382 13.4483 16.4658C13.3538 16.2771 13.3639 16.0516 13.477 15.8712C13.7387 15.4537 14.3329 15.1397 14.7246 14.2494C14.8157 14.044 14.8242 13.8102 14.7516 13.5964C14.2941 12.2485 13.5125 10.5549 13.1715 9.83503C13.0702 9.61957 12.8558 9.48094 12.6178 9.47092L12.6161 9.47259Z" fill="var(--fill-0, white)"/>
</g>
<path id="Vector_6" d="M120.962 6.20674H124.775V0.412294C124.775 0.380327 124.751 0.353407 124.719 0.348359C116.372 -0.947146 111.245 1.22661 111.245 9.33782V13.4313C111.245 13.4919 111.196 13.5406 111.135 13.5406H105.578V20.104H111.135C111.196 20.104 111.245 20.1528 111.245 20.2133V34.5312H118.121V20.2133C118.121 20.1528 118.17 20.104 118.23 20.104H123.725C123.725 20.104 123.733 20.1006 123.733 20.0956L124.53 13.539H118.23C118.17 13.539 118.121 13.4902 118.121 13.4296V9.33614C118.121 7.0934 118.994 6.20506 120.963 6.20506L120.962 6.20674Z" fill="var(--fill-0, white)"/>
<g id="Group 13257">
<path id="Vector_7" d="M162.188 14.9386C166.014 8.74362 178 9.51323 178 19.6936V35.0311H170.755V21.6035C170.755 19.4023 168.951 17.6181 166.725 17.6181C164.499 17.6181 162.695 19.4023 162.695 21.6035V35.0311H155.314V11.7227H162.178L162.187 14.9369L162.188 14.9386Z" fill="var(--fill-0, white)"/>
<path id="Vector_8" d="M151.824 11.8574H143.971V35.0311H151.824V11.8574Z" fill="var(--fill-0, white)"/>
<path id="Vector_9" d="M151.847 5.10208C152.075 2.82452 150.393 0.795543 148.091 0.57022C145.789 0.344897 143.739 2.00856 143.511 4.28611C143.283 6.56366 144.965 8.59265 147.267 8.81797C149.569 9.04329 151.619 7.37963 151.847 5.10208Z" fill="var(--fill-0, white)"/>
</g>
</g>
</svg>
