<svg preserveAspectRatio="none" width="100%" height="100%" overflow="visible" style="display: block;" viewBox="0 0 76 65" fill="none" xmlns="http://www.w3.org/2000/svg">
<g id="Livello_1" clip-path="url(#clip0_4042_130)">
<path id="Vector" d="M73.2211 6.65427C66.778 -2.22164 52.6487 -2.21454 46.1949 6.65427C44.9484 8.36405 44.1733 10.1307 43.759 11.9222C43.3447 11.5099 42.9304 11.094 42.5197 10.6817C40.6018 8.76572 38.6838 6.85333 36.773 4.93383C36.5694 4.72766 36.2301 4.35798 35.8408 3.93142C33.805 1.70267 32.6978 0.590069 31.9156 0.295035C30.9584 -0.0639833 29.8798 0.106639 29.1012 0.742918L21.4901 8.43159C21.4223 7.63535 21.2151 6.88888 20.7008 6.33435C20.2758 5.87581 19.6901 5.62343 19.0079 5.6021C18.0578 5.57011 13.5826 5.57722 12.6504 5.6021C12.0718 5.61632 11.5682 5.83671 11.1897 6.23483C10.6861 6.77157 10.4503 7.58914 10.4896 8.66619L10.5218 9.48731C10.6468 12.6829 10.7718 15.9887 10.5039 18.9853C10.4646 19.4261 10.2432 19.81 10.0575 20.0659C8.81097 21.4629 7.33947 22.8563 5.91798 24.207C4.28219 25.7569 2.59639 27.3564 1.17847 29.0165C0.478435 29.8411 -0.582329 31.0853 0.396288 32.8519C1.26419 34.4159 3.39286 34.3058 5.10365 34.2169C5.56439 34.192 6.03584 34.1707 6.393 34.1885L6.41443 61.4809V61.5591C6.56086 63.4289 7.13589 64.6268 9.56458 64.8152C11.3111 64.9502 13.1147 65 14.9005 65C17.2828 65 19.6436 64.9111 21.8044 64.8152H21.8616C22.6116 64.737 24.6046 64.545 24.8546 62.462L24.8617 62.3838C24.976 59.9631 24.9046 57.4571 24.8403 55.0328C24.7689 52.4131 24.6903 49.7044 24.8546 47.1557C24.9724 45.2967 25.2725 45.0052 26.3082 44.8986C28.6048 44.6675 33.3586 44.7031 35.4908 44.895C36.2301 44.9625 36.6873 45.3891 36.7837 46.1071C36.948 48.4994 36.8551 51.0836 36.7659 53.5825C36.6659 56.3231 36.5658 59.1562 36.7944 61.815C36.9944 64.1398 38.1981 64.6872 40.0696 64.8152C43.4912 65.0498 48.7164 65.0498 51.963 64.8152C52.838 64.7512 54.656 64.6197 55.1417 62.7926L55.1739 62.6717V62.5473C55.2846 58.2569 55.256 53.8882 55.231 49.6653C55.2167 47.1557 55.2024 44.6071 55.2131 42.0477C56.0918 43.3025 56.9847 44.5324 57.874 45.7197C58.4812 46.5301 59.2455 47.6214 59.9134 48.343C59.9634 48.3963 60.1277 48.606 60.2062 48.5492C64.4386 42.0904 68.5959 35.5285 71.9175 28.5437C75.3141 21.3989 78.4357 13.8382 73.2176 6.65072L73.2211 6.65427ZM53.0916 49.676C53.1166 53.8313 53.1416 58.1289 53.0416 62.3376C52.963 62.5046 52.738 62.622 51.8094 62.6895C48.7021 62.917 43.5019 62.917 40.2196 62.6895C39.0124 62.6077 39.0124 62.5686 38.9302 61.6338C38.7124 59.1029 38.8124 56.3374 38.9088 53.6607C39.0017 51.0978 39.0981 48.4461 38.9231 45.933V45.8796C38.7088 44.1521 37.4373 42.9328 35.6837 42.7764C33.4586 42.5774 28.4976 42.5418 26.0939 42.7836C22.9688 43.0964 22.8045 45.6521 22.7188 47.0278C22.5509 49.6724 22.6259 52.4308 22.7009 55.1003C22.7652 57.4713 22.8366 59.924 22.7259 62.2523C22.6973 62.4513 22.6295 62.6006 21.683 62.693C17.9685 62.8566 13.6826 63.0023 9.73244 62.693C8.72168 62.6148 8.65025 62.6077 8.55739 61.4418L8.53596 33.7299V33.609L8.50738 33.4917C8.33238 32.7382 7.77164 32.2334 6.96803 32.1054C6.40371 32.0166 5.71797 32.0521 4.99293 32.0877C4.17861 32.1303 2.48924 32.2156 2.27138 31.8175C2.05708 31.4336 2.03565 31.3056 2.81069 30.3957C4.15004 28.821 5.80011 27.2605 7.39305 25.7498C8.86097 24.3599 10.3753 22.9238 11.6897 21.4451L11.7433 21.3776C12.2576 20.6951 12.5683 19.9344 12.6361 19.1737C12.9183 16.0421 12.7862 12.6652 12.6612 9.402L12.629 8.58444C12.6111 8.0939 12.679 7.83085 12.729 7.72777C13.6969 7.70289 18.015 7.69933 18.9364 7.72777C19.0829 7.73132 19.115 7.76687 19.1257 7.77753C19.4365 8.11167 19.3758 9.49087 19.3436 10.2338C19.3293 10.5786 19.315 10.9092 19.315 11.2078L19.3257 13.9875L22.5938 10.344L30.487 2.36028C30.6727 2.22875 30.9227 2.20032 31.1334 2.27852C31.662 2.53445 33.4728 4.51438 34.2479 5.36039C34.655 5.80471 35.0086 6.19217 35.2444 6.43033C37.1552 8.34983 39.0731 10.2658 40.9946 12.1817C41.7947 12.978 42.5911 13.7778 43.3912 14.5775C43.1697 19.2981 45.0448 24.1253 47.1949 28.6006C48.8593 32.0663 50.9022 35.5676 53.1023 38.9268C53.0488 42.5347 53.0666 46.1427 53.0881 49.6724L53.0916 49.676ZM66.8208 23.2615C61.5456 28.5473 52.4559 26.4038 50.1843 19.3336C47.5985 11.3002 55.606 3.90299 63.4671 7.05595C70.0067 9.67926 71.8139 18.2566 66.8208 23.2615Z" fill="var(--fill-0, #050038)"/>
</g>
<defs>
<clipPath id="clip0_4042_130">
<rect width="76" height="65" fill="white"/>
</clipPath>
</defs>
</svg>
