<svg preserveAspectRatio="none" width="100%" height="100%" overflow="visible" style="display: block;" viewBox="0 0 25 18" fill="none" xmlns="http://www.w3.org/2000/svg">
<g id="Livello_1" clip-path="url(#clip0_4042_90)">
<path id="Vector" d="M22.6384 15.8096V17.0231C22.6384 17.1399 22.5269 17.3916 22.462 17.4932C22.004 18.2026 20.9476 18.1547 20.5426 17.4213L19.9392 15.8081H5.09859L5.05413 15.8422L4.51642 17.3024C4.14595 18.2287 2.80167 18.2345 2.44391 17.2944C2.42062 17.2342 2.36276 17.0572 2.36276 17.0028V15.8089C1.87726 15.7856 1.34167 15.8828 0.885111 15.6797C0.428551 15.4766 0.132881 15.0668 0.0446738 14.5895C0.0418512 13.3034 -0.0343597 11.9934 0.0199758 10.7059C0.031972 10.4266 0.0714887 10.1212 0.125824 9.84778C0.472302 8.12068 1.74248 6.72 3.37184 6.19773L3.37961 1.46906C3.44523 0.656649 4.08103 0.0480657 4.86784 -0.00125932H20.115C20.8898 0.032833 21.5376 0.634163 21.6208 1.43062L21.6237 6.18395C21.6321 6.21079 22.0612 6.35804 22.1331 6.39068C23.826 7.14506 24.9064 8.83299 24.9819 10.7255C25.0334 12.0072 24.9614 13.31 24.9572 14.5895C24.8774 15.0175 24.6149 15.4019 24.2452 15.6145C23.754 15.8966 23.1796 15.7864 22.6384 15.8081V15.8096ZM20.834 6.02002V1.58947C20.834 1.2072 20.4988 0.856851 20.134 0.828561H4.88689C4.51289 0.839442 4.16783 1.2043 4.16783 1.58947V6.02074C4.25039 6.0367 4.33083 6.00261 4.40704 6.00043C4.7133 5.98955 5.09717 6.03743 5.38791 6.00261C5.41613 5.99898 5.4373 6.00043 5.45424 5.97214V5.06398C5.45424 5.03787 5.4994 4.88482 5.5114 4.84637C5.67228 4.33136 6.1359 4.00132 6.65385 3.96795C8.03412 3.87946 9.50612 4.03396 10.8956 3.97158C11.386 4.0122 11.8383 4.3582 11.9886 4.84202C12.1015 5.20688 12.0458 5.62324 12.0599 6.00188H12.9335L12.9624 5.97214V5.06398C12.9624 5.03787 13.0076 4.88482 13.0196 4.84637C13.1798 4.33281 13.6462 4.00059 14.162 3.96795C15.5317 3.88018 16.9896 4.03614 18.3685 3.96795C18.9626 3.97666 19.5674 4.56421 19.5674 5.18222V6.00116L20.8347 6.02074L20.834 6.02002ZM11.2526 6.00043V5.18149C11.2526 5.02119 11.019 4.79995 10.8589 4.79632H6.6722C6.50425 4.79632 6.32925 4.93922 6.27492 5.09808C6.26786 5.11839 6.24104 5.22937 6.24104 5.24097V5.97142L6.26998 6.00116H11.2526V6.00043ZM18.7601 6.00043V5.18149C18.7601 5.02119 18.5265 4.79995 18.3663 4.79632H14.1797C14.0054 4.79995 13.8403 4.93414 13.7859 5.10098C13.7782 5.12491 13.7485 5.24533 13.7485 5.25983V5.97069L13.7775 6.00043H18.7601ZM4.64344 6.81575C2.61185 6.86072 0.93239 8.57476 0.826541 10.6493C0.764443 11.8672 0.873115 13.1373 0.825836 14.3603C0.852651 14.7143 1.1088 14.9565 1.44964 14.9819H23.5699C23.9029 14.95 24.1633 14.6889 24.1746 14.3407C24.1287 13.1286 24.2318 11.8745 24.1746 10.6682C24.0793 8.66688 22.5509 7.02103 20.6117 6.83025L20.3055 6.80922L4.64273 6.81575H4.64344ZM4.20593 15.8096H3.16932V16.9448C3.16932 17.0296 3.31186 17.1515 3.39443 17.1675C3.64776 17.2161 3.73102 17.0877 3.81711 16.8809C3.96248 16.532 4.0648 16.1607 4.20593 15.8103V15.8096ZM21.8318 15.8096H20.7952C20.9512 16.1679 21.0492 16.5806 21.208 16.9339C21.2927 17.1225 21.3894 17.2045 21.606 17.166C21.6815 17.153 21.8311 17.0405 21.8311 16.9636V15.8089L21.8318 15.8096Z" fill="var(--fill-0, #02033B)"/>
</g>
<defs>
<clipPath id="clip0_4042_90">
<rect width="25" height="18" fill="white"/>
</clipPath>
</defs>
</svg>
