<svg preserveAspectRatio="none" width="100%" height="100%" overflow="visible" style="display: block;" viewBox="0 0 13 19" fill="none" xmlns="http://www.w3.org/2000/svg">
<g id="Modalit&#195;&#160;_Isolamento" clip-path="url(#clip0_4042_78)">
<path id="Vector" d="M6.29231 18.9962C4.60526 16.4685 2.94893 13.9024 1.62558 11.1683C0.271518 8.37283 -0.97196 5.4153 1.10706 2.60306C3.67388 -0.869604 9.30517 -0.867203 11.8757 2.60306C13.9055 5.34205 12.823 8.43647 11.4763 11.1923C10.3496 13.499 8.78541 15.8417 7.22123 17.889C6.97917 18.206 6.67445 18.6323 6.40904 18.9157C6.38938 18.9361 6.32426 19.0178 6.29231 18.9974V18.9962ZM3.65791 9.1017C5.75904 11.1707 9.38135 10.3313 10.2882 7.5647C11.3178 4.42225 8.12681 1.52716 4.99477 2.76036C2.38863 3.78704 1.66982 7.14323 3.65791 9.1017Z" fill="var(--fill-0, #02033B)"/>
</g>
<defs>
<clipPath id="clip0_4042_78">
<rect width="13" height="19" fill="white"/>
</clipPath>
</defs>
</svg>
