<svg preserveAspectRatio="none" width="100%" height="100%" overflow="visible" style="display: block;" viewBox="0 0 17.0003 19.2853" fill="none" xmlns="http://www.w3.org/2000/svg">
<g id="Group">
<path id="Vector" d="M9.06809 5.37363H16.5092C16.6978 5.37363 16.9726 5.63887 16.9899 5.83781C16.9753 6.74296 17.0707 7.6553 16.8719 8.54278C16.4677 10.3442 15.0349 11.8175 13.2782 12.2352C12.5599 12.406 11.8335 12.375 11.0996 12.3762L12.3077 18.5995C12.3541 18.9775 12.117 19.2582 11.7505 19.2853H5.23193C4.88167 19.2543 4.64403 18.962 4.69469 18.6017L5.90066 12.3762H4.82886C2.6039 12.3629 0.616584 10.7543 0.124603 8.52786C-0.0699255 7.64591 0.025453 6.73799 0.0103648 5.83836C0.0276084 5.63943 0.302428 5.37418 0.491029 5.37418H7.93217L7.93109 1.77842C7.99521 0.302986 9.63227 -0.527016 10.8043 0.373167C11.2225 0.694226 11.5312 1.29158 11.5178 1.83368C11.5054 2.33047 10.9369 2.60069 10.5677 2.26747C10.3209 2.04533 10.4384 1.78063 10.3085 1.51981C10.0795 1.0606 9.41996 1.03518 9.16185 1.48278C9.14299 1.51539 9.06647 1.68117 9.06647 1.70438V5.37418L9.06809 5.37363ZM15.8777 6.5374H1.12311C1.12527 7.04689 1.1021 7.55694 1.184 8.06147C1.46475 9.79718 2.9547 11.1284 4.66451 11.2124H12.318C13.9572 11.1405 15.4083 9.91985 15.7737 8.27974C15.9019 7.70338 15.8788 7.12536 15.8777 6.5374ZM5.93784 18.1204H11.0635L9.94481 12.3778L7.06568 12.375L5.93784 18.1204Z" fill="var(--fill-0, #02033B)"/>
</g>
</svg>
