<svg preserveAspectRatio="none" width="100%" height="100%" overflow="visible" style="display: block;" viewBox="0 0 75 64" fill="none" xmlns="http://www.w3.org/2000/svg">
<g id="Livello_1" clip-path="url(#clip0_4042_50)">
<path id="Vector" d="M0 42.1673L4.66793 39.0048C6.46811 37.2646 8.20567 35.4489 9.47049 33.2587C9.0134 31.5405 8.03974 29.8885 7.57952 28.0948C0.623017 1.0636 38.7116 -11.3223 49.2778 13.1631C58.7389 35.0839 32.3562 54.2763 14.3576 39.1275C9.88688 41.2107 4.97161 42.4883 0 42.1705V42.1673ZM15.5848 17.833C8.932 18.5662 12.2287 29.5297 18.368 26.0368C22.5726 23.6452 20.2371 17.3201 15.5848 17.833ZM28.4146 17.8267C22.7855 18.6103 23.9815 26.9525 29.2286 26.6315C35.2396 26.2633 34.1814 17.0243 28.4146 17.8267ZM41.0096 17.833C39.6821 18.0533 38.1794 19.3403 37.691 20.5928C35.9753 24.9983 41.6201 28.699 44.9292 25.2878C47.8878 22.2385 45.1296 17.1501 41.0096 17.8299V17.833Z" fill="var(--fill-0, #050038)"/>
<path id="Vector_2" d="M46.2128 64C43.9493 64 41.6545 63.6318 39.4035 62.8829C32.3499 60.5354 27.2218 54.8837 25.6846 47.7656L25.4529 46.6988L26.5361 46.6233C27.4628 46.5572 28.4271 46.5949 29.3601 46.6327C30.3776 46.6736 31.3387 46.7114 32.2278 46.6233C35.7969 46.2771 39.8762 44.1467 41.4635 43.2467L41.7829 43.0642L42.8786 43.3254L43.0758 43.7156C43.8679 45.2733 45.0044 46.0537 46.2849 45.9152C47.5371 45.7768 48.6767 44.7824 48.9961 43.5488C49.3248 42.2838 48.7237 41.0282 47.3023 40.0118L46.4664 39.4139L47.1302 38.6303C49.8038 35.4772 51.6916 31.9811 52.5902 28.5133C52.7655 27.8336 52.8594 27.1382 52.9596 26.405C53.0316 25.8857 53.1036 25.3476 53.2069 24.8095C53.1725 24.4413 53.2695 24.1487 53.4918 23.9253C53.8644 23.5539 54.3371 23.6106 54.5938 23.642L54.7347 23.6578L54.8631 23.7144C64.177 27.884 69.0986 38.6303 66.3091 48.7128C66.0837 49.5246 65.7518 50.2767 65.4293 51.0036C65.1851 51.5543 64.9535 52.0798 64.775 52.6085L67.505 56.2777L74.9937 61.6965L72.3984 61.8759C68.2376 62.1654 63.8483 61.2874 59.3369 59.2672C55.5769 62.3762 50.9653 64 46.2066 64H46.2128ZM27.7947 48.4767C29.4603 54.4085 33.9497 59.0784 39.9921 61.0923C46.5384 63.2731 53.4856 61.9105 58.573 57.4483L59.0332 57.0455L59.5874 57.3036C62.9717 58.8833 66.2715 59.7833 69.4335 59.991L66.1807 57.6371L62.715 52.983L62.8371 52.5361C63.0594 51.7211 63.3943 50.9627 63.7199 50.2295C64.0268 49.5341 64.3179 48.8764 64.5058 48.1998C66.9634 39.3195 62.8684 29.8759 54.9414 25.8322C54.9007 26.0997 54.8631 26.3703 54.8255 26.6504C54.7222 27.4088 54.6158 28.1892 54.4123 28.9791C53.5137 32.4468 51.7136 35.9304 49.1777 39.1024C50.6804 40.5027 51.2753 42.2492 50.8182 44.0177C50.3016 46.0128 48.5233 47.561 46.4915 47.7844C44.6224 47.989 42.9412 47.0638 41.7766 45.2229C39.7948 46.296 35.9284 48.1558 32.4094 48.4956C31.3919 48.5932 30.3212 48.5523 29.2849 48.5114C28.7715 48.4925 28.2768 48.4705 27.7947 48.4673V48.4767ZM57.496 47.8128C56.3314 47.8128 55.2669 47.4005 54.4216 46.5981C53.0066 45.2544 52.4493 42.9981 53.066 41.11C53.6327 39.3793 55.0666 38.2496 57.0045 38.0104C59.9568 37.6422 61.854 39.6814 62.3706 41.7268C62.9874 44.1782 61.854 46.5068 59.6124 47.3879C58.8892 47.6743 58.1754 47.8128 57.496 47.8128ZM57.233 39.8828C55.6927 40.0716 55.0885 40.9747 54.8506 41.6985C54.4592 42.8943 54.8224 44.3764 55.7115 45.2229C56.5224 45.9939 57.6338 46.1355 58.9268 45.6257C60.489 45.009 60.8678 43.4544 60.5485 42.1863C60.2417 40.9716 59.1898 39.6405 57.233 39.8796V39.8828Z" fill="var(--fill-0, #050038)"/>
</g>
<defs>
<clipPath id="clip0_4042_50">
<rect width="75" height="64" fill="white"/>
</clipPath>
</defs>
</svg>
