<svg preserveAspectRatio="none" width="100%" height="100%" overflow="visible" style="display: block;" viewBox="0 0 11 19" fill="none" xmlns="http://www.w3.org/2000/svg">
<g id="Modalit&#195;&#160;_Isolamento" clip-path="url(#clip0_4042_93)">
<path id="Vector" d="M5.32425 18.9962C3.89675 16.4685 2.49524 13.9024 1.37548 11.1683C0.229735 8.37283 -0.822439 5.4153 0.936729 2.60306C3.10866 -0.869604 7.87359 -0.867203 10.0486 2.60306C11.7662 5.34205 10.8502 8.43647 9.71074 11.1923C8.75733 13.499 7.4338 15.8417 6.11026 17.889C5.90544 18.206 5.6476 18.6323 5.42302 18.9157C5.40639 18.9361 5.35128 19.0178 5.32425 18.9974V18.9962ZM3.09514 9.1017C4.87302 11.1707 7.93805 10.3313 8.70535 7.5647C9.57662 4.42225 6.87652 1.52716 4.22633 2.76036C2.02113 3.78704 1.41291 7.14323 3.09514 9.1017Z" fill="var(--fill-0, #02033B)"/>
</g>
<defs>
<clipPath id="clip0_4042_93">
<rect width="11" height="19" fill="white"/>
</clipPath>
</defs>
</svg>
