<svg preserveAspectRatio="none" width="100%" height="100%" overflow="visible" style="display: block;" viewBox="0 0 26 18" fill="none" xmlns="http://www.w3.org/2000/svg">
<g id="Livello_1" clip-path="url(#clip0_4042_66)">
<path id="Vector" d="M23.5439 15.8096V17.0231C23.5439 17.1399 23.4279 17.3916 23.3604 17.4932C22.8841 18.2026 21.7855 18.1547 21.3643 17.4213L20.7368 15.8081H5.30251L5.25628 15.8422L4.69706 17.3024C4.31177 18.2287 2.91372 18.2345 2.54164 17.2944C2.51743 17.2342 2.45725 17.0572 2.45725 17.0028V15.8089C1.95234 15.7856 1.39532 15.8828 0.920496 15.6797C0.445674 15.4766 0.138177 15.0668 0.0464414 14.5895C0.0435059 13.3034 -0.0357535 11.9934 0.0207555 10.7059C0.0332315 10.4266 0.0743289 10.1212 0.130838 9.84778C0.491174 8.12068 1.81216 6.72 3.5067 6.19773L3.51477 1.46906C3.58302 0.656649 4.24425 0.0480657 5.06253 -0.00125932H20.9195C21.7253 0.032833 22.399 0.634163 22.4856 1.43062L22.4886 6.18395C22.4974 6.21079 22.9436 6.35804 23.0184 6.39068C24.779 7.14506 25.9026 8.83299 25.9811 10.7255C26.0347 12.0072 25.9598 13.31 25.9554 14.5895C25.8725 15.0175 25.5995 15.4019 25.215 15.6145C24.7042 15.8966 24.1068 15.7864 23.5439 15.8081V15.8096ZM21.6674 6.02002V1.58947C21.6674 1.2072 21.3188 0.856851 20.9394 0.828561H5.08235C4.69339 0.839442 4.33452 1.2043 4.33452 1.58947V6.02074C4.42038 6.0367 4.50405 6.00261 4.58331 6.00043C4.90181 5.98955 5.30104 6.03743 5.6034 6.00261C5.63276 5.99898 5.65477 6.00043 5.67239 5.97214V5.06398C5.67239 5.03787 5.71936 4.88482 5.73183 4.84637C5.89916 4.33136 6.38132 4.00132 6.91999 3.96795C8.35546 3.87946 9.88634 4.03396 11.3314 3.97158C11.8414 4.0122 12.3118 4.3582 12.4681 4.84202C12.5856 5.20688 12.5276 5.62324 12.5423 6.00188H13.4508L13.4809 5.97214V5.06398C13.4809 5.03787 13.5279 4.88482 13.5403 4.84637C13.7069 4.33281 14.192 4.00059 14.7285 3.96795C16.153 3.88018 17.6692 4.03614 19.1032 3.96795C19.7211 3.97666 20.35 4.56421 20.35 5.18222V6.00116L21.6681 6.02074L21.6674 6.02002ZM11.7027 6.00043V5.18149C11.7027 5.02119 11.4598 4.79995 11.2932 4.79632H6.93907C6.76441 4.79632 6.5824 4.93922 6.52589 5.09808C6.51855 5.11839 6.49067 5.22937 6.49067 5.24097V5.97142L6.52076 6.00116H11.7027V6.00043ZM19.5105 6.00043V5.18149C19.5105 5.02119 19.2676 4.79995 19.101 4.79632H14.7468C14.5656 4.79995 14.3939 4.93414 14.3373 5.10098C14.3293 5.12491 14.2984 5.24533 14.2984 5.25983V5.97069L14.3285 6.00043H19.5105ZM4.82916 6.81575C2.71631 6.86072 0.969666 8.57476 0.859584 10.6493C0.795002 11.8672 0.90802 13.1373 0.85885 14.3603C0.886737 14.7143 1.15314 14.9565 1.5076 14.9819H24.5126C24.859 14.95 25.1298 14.6889 25.1416 14.3407C25.0939 13.1286 25.201 11.8745 25.1416 10.6682C25.0425 8.66688 23.4529 7.02103 21.4362 6.83025L21.1177 6.80922L4.82842 6.81575H4.82916ZM4.37415 15.8096H3.29607V16.9448C3.29607 17.0296 3.44432 17.1515 3.53018 17.1675C3.79365 17.2161 3.88025 17.0877 3.96978 16.8809C4.12096 16.532 4.22737 16.1607 4.37415 15.8103V15.8096ZM22.7051 15.8096H21.627C21.7892 16.1679 21.8912 16.5806 22.0563 16.9339C22.1444 17.1225 22.2449 17.2045 22.4702 17.166C22.5488 17.153 22.7043 17.0405 22.7043 16.9636V15.8089L22.7051 15.8096Z" fill="var(--fill-0, #02033B)"/>
</g>
<defs>
<clipPath id="clip0_4042_66">
<rect width="26" height="18" fill="white"/>
</clipPath>
</defs>
</svg>
