<svg preserveAspectRatio="none" width="100%" height="100%" overflow="visible" style="display: block;" viewBox="0 0 26 17" fill="none" xmlns="http://www.w3.org/2000/svg">
<g id="Livello_1" clip-path="url(#clip0_4042_124)">
<path id="Vector" d="M23.5439 14.9312V16.0773C23.5439 16.1876 23.4279 16.4253 23.3604 16.5212C22.8841 17.1912 21.7855 17.146 21.3643 16.4534L20.7368 14.9298H5.30251L5.25628 14.962L4.69706 16.3411C4.31177 17.2159 2.91372 17.2214 2.54164 16.3335C2.51743 16.2767 2.45725 16.1095 2.45725 16.0581V14.9305C1.95234 14.9086 1.39532 15.0004 0.920496 14.8086C0.445674 14.6168 0.138177 14.2297 0.0464414 13.7789C0.0435059 12.5643 -0.0357535 11.327 0.0207555 10.1111C0.0332315 9.8473 0.0743289 9.55889 0.130838 9.30061C0.491174 7.66946 1.81216 6.34659 3.5067 5.85334L3.51477 1.38738C3.58302 0.620099 4.24425 0.0453254 5.06253 -0.00125932H20.9195C21.7253 0.0309389 22.399 0.598862 22.4856 1.35107L22.4886 5.84033C22.4974 5.86568 22.9436 6.00475 23.0184 6.03557C24.779 6.74805 25.9026 8.3422 25.9811 10.1295C26.0347 11.3401 25.9598 12.5705 25.9554 13.7789C25.8725 14.1831 25.5995 14.5462 25.215 14.7469C24.7042 15.0134 24.1068 14.9093 23.5439 14.9298V14.9312ZM21.6674 5.6855V1.5011C21.6674 1.14007 21.3188 0.809178 20.9394 0.78246H5.08235C4.69339 0.792736 4.33452 1.13733 4.33452 1.5011V5.68619C4.42038 5.70126 4.50405 5.66906 4.58331 5.66701C4.90181 5.65673 5.30104 5.70194 5.6034 5.66906C5.63276 5.66564 5.65477 5.66701 5.67239 5.64029V4.78258C5.67239 4.75792 5.71936 4.61337 5.73183 4.57706C5.89916 4.09066 6.38132 3.77895 6.91999 3.74744C8.35546 3.66386 9.88634 3.80978 11.3314 3.75087C11.8414 3.78923 12.3118 4.11601 12.4681 4.57295C12.5856 4.91754 12.5276 5.31077 12.5423 5.66838H13.4508L13.4809 5.64029V4.78258C13.4809 4.75792 13.5279 4.61337 13.5403 4.57706C13.7069 4.09203 14.192 3.77827 14.7285 3.74744C16.153 3.66455 17.6692 3.81184 19.1032 3.74744C19.7211 3.75566 20.35 4.31057 20.35 4.89425V5.66769L21.6681 5.68619L21.6674 5.6855ZM11.7027 5.66701V4.89356C11.7027 4.74216 11.4598 4.53322 11.2932 4.52979H6.93907C6.76441 4.52979 6.5824 4.66475 6.52589 4.81478C6.51855 4.83396 6.49067 4.93878 6.49067 4.94974V5.6396L6.52076 5.66769H11.7027V5.66701ZM19.5105 5.66701V4.89356C19.5105 4.74216 19.2676 4.53322 19.101 4.52979H14.7468C14.5656 4.53322 14.3939 4.65995 14.3373 4.81752C14.3293 4.84013 14.2984 4.95385 14.2984 4.96755V5.63892L14.3285 5.66701H19.5105ZM4.82916 6.43702C2.71631 6.4795 0.969666 8.09832 0.859584 10.0576C0.795002 11.2078 0.90802 12.4074 0.85885 13.5624C0.886737 13.8967 1.15314 14.1256 1.5076 14.1495H24.5126C24.859 14.1194 25.1298 13.8728 25.1416 13.5439C25.0939 12.3992 25.201 11.2147 25.1416 10.0754C25.0425 8.18532 23.4529 6.6309 21.4362 6.45073L21.1177 6.43086L4.82842 6.43702H4.82916ZM4.37415 14.9312H3.29607V16.0033C3.29607 16.0835 3.44432 16.1986 3.53018 16.2136C3.79365 16.2595 3.88025 16.1383 3.96978 15.943C4.12096 15.6135 4.22737 15.2628 4.37415 14.9319V14.9312ZM22.7051 14.9312H21.627C21.7892 15.2696 21.8912 15.6594 22.0563 15.9931C22.1444 16.1712 22.2449 16.2486 22.4702 16.2123C22.5488 16.1999 22.7043 16.0938 22.7043 16.0211V14.9305L22.7051 14.9312Z" fill="var(--fill-0, #02033B)"/>
</g>
<defs>
<clipPath id="clip0_4042_124">
<rect width="26" height="17" fill="white"/>
</clipPath>
</defs>
</svg>
