<svg preserveAspectRatio="none" width="100%" height="100%" overflow="visible" style="display: block;" viewBox="0 0 13 18" fill="none" xmlns="http://www.w3.org/2000/svg">
<g id="Modalit&#195;&#160;_Isolamento" clip-path="url(#clip0_4042_127)">
<path id="Vector" d="M6.29231 17.9963C4.60526 15.6017 2.94893 13.1707 1.62558 10.5804C0.271518 7.93212 -0.97196 5.13025 1.10706 2.46603C3.67388 -0.823864 9.30517 -0.821589 11.8757 2.46603C13.9055 5.06086 12.823 7.99242 11.4763 10.6032C10.3496 12.7885 8.78541 15.0079 7.22123 16.9475C6.97917 17.2478 6.67445 17.6516 6.40904 17.9201C6.38938 17.9395 6.32426 18.0168 6.29231 17.9975V17.9963ZM3.65791 8.62264C5.75904 10.5827 9.38135 9.78752 10.2882 7.16653C11.3178 4.18947 8.12681 1.44675 4.99477 2.61505C2.38863 3.58769 1.66982 6.76724 3.65791 8.62264Z" fill="var(--fill-0, #02033B)"/>
</g>
<defs>
<clipPath id="clip0_4042_127">
<rect width="13" height="18" fill="white"/>
</clipPath>
</defs>
</svg>
