<svg preserveAspectRatio="none" width="100%" height="100%" overflow="visible" style="display: block;" viewBox="0 0 178 35.7461" fill="none" xmlns="http://www.w3.org/2000/svg">
<g id="Group 13262">
<g id="Group 13256">
<path id="Vector" d="M77.0865 35.0748H62.7894C57.3029 35.0748 52.8394 30.5853 52.8394 25.0669V10.6867C52.8394 5.16831 57.3029 0.678856 62.7894 0.678856H77.0865C82.5731 0.678856 87.0366 5.16831 87.0366 10.6867V25.0669C87.0366 30.5853 82.5731 35.0748 77.0865 35.0748ZM62.7894 3.73352C58.9776 3.73352 55.8747 6.8527 55.8747 10.6884V25.0686C55.8747 28.9026 58.9759 32.0235 62.7894 32.0235H77.0865C80.8984 32.0235 84.0012 28.9043 84.0012 25.0686V10.6867C84.0012 6.8527 80.9001 3.73182 77.0865 3.73182H62.7894V3.73352Z" fill="var(--fill-0, white)"/>
<path id="Vector_2" d="M69.9393 26.719C65.0926 26.719 61.1491 22.7525 61.1491 17.8776C61.1491 13.0027 65.0926 9.03624 69.9393 9.03624C74.7861 9.03624 78.7296 13.0027 78.7296 17.8776C78.7296 22.7525 74.7861 26.719 69.9393 26.719ZM69.9393 12.0892C66.7656 12.0892 64.1844 14.6854 64.1844 17.8776C64.1844 21.0698 66.7656 23.666 69.9393 23.666C73.1131 23.666 75.6943 21.0698 75.6943 17.8776C75.6943 14.6854 73.1131 12.0892 69.9393 12.0892Z" fill="var(--fill-0, white)"/>
<path id="Vector_3" d="M81.0326 9.16473C81.2892 8.07712 80.6206 6.9862 79.5393 6.7281C78.458 6.47 77.3734 7.14245 77.1168 8.23006C76.8602 9.31767 77.5287 10.4086 78.61 10.6667C79.6914 10.9248 80.776 10.2523 81.0326 9.16473Z" fill="var(--fill-0, white)"/>
</g>
<g id="Group 13255">
<path id="Vector_4" d="M0.111419 35.7461L2.42758 26.864C0.83733 24.1354 0 21.0331 0 17.8477C0 8.00626 7.9597 0.000298589 17.7443 0.000298589C27.5289 0.000298589 35.4886 8.00626 35.4886 17.8477C35.4886 27.6892 27.5289 35.6952 17.7443 35.6952C14.7208 35.6952 11.7581 34.9226 9.13298 33.4555L0.111419 35.7461ZM9.58878 30.2735L10.1172 30.5945C12.4114 31.9868 15.05 32.7237 17.7443 32.7237C25.8982 32.7237 32.5327 26.0507 32.5327 17.8494C32.5327 9.64821 25.8998 2.97346 17.7443 2.97346C9.58878 2.97346 2.95598 9.64651 2.95598 17.8477C2.95598 20.6868 3.75448 23.4477 5.2637 25.8299L5.61146 26.3784L4.24067 31.6319L9.58878 30.2735Z" fill="var(--fill-0, white)"/>
<path id="Vector_5" d="M12.6161 9.6298C12.3443 9.61792 11.9762 9.60433 11.6758 9.59415C11.3263 9.58226 10.9836 9.68584 10.6966 9.8862C9.57061 10.6724 7.50598 13.0173 9.86435 17.2283C12.9368 22.6007 17.478 25.2716 21.0349 26.1172C24.5936 26.9628 26.3206 24.5601 26.5147 24.0643C26.6633 23.6823 26.8102 22.9267 26.822 22.3629C26.827 22.0947 26.6869 21.8451 26.4557 21.7126C25.5609 21.1998 23.3258 20.0707 22.4091 19.9671C22.2268 19.9467 22.0495 20.0197 21.9246 20.1556C21.4469 20.6751 20.8611 21.7313 20.3546 22.1167C20.2077 22.2288 20.0153 22.2577 19.8397 22.2016C18.8201 21.8824 15.204 20.2693 13.4483 16.7392C13.3538 16.5474 13.3639 16.3181 13.477 16.1348C13.7387 15.7103 14.3329 15.391 14.7246 14.486C14.8157 14.2772 14.8242 14.0395 14.7516 13.8221C14.2941 12.4518 13.5125 10.7301 13.1715 9.99826C13.0702 9.77923 12.8558 9.63829 12.6178 9.62811L12.6161 9.6298Z" fill="var(--fill-0, white)"/>
</g>
<path id="Vector_6" d="M120.962 6.30969H124.775V0.418962C124.775 0.386464 124.751 0.359097 124.719 0.353966C116.372 -0.963067 111.245 1.24681 111.245 9.4928V13.6543C111.245 13.7159 111.196 13.7655 111.135 13.7655H105.578V20.4379H111.135C111.196 20.4379 111.245 20.4875 111.245 20.549V35.1048H118.121V20.549C118.121 20.4875 118.17 20.4379 118.23 20.4379H123.725C123.725 20.4379 123.733 20.4344 123.733 20.4293L124.53 13.7638H118.23C118.17 13.7638 118.121 13.7141 118.121 13.6526V9.49109C118.121 7.21109 118.994 6.30798 120.963 6.30798L120.962 6.30969Z" fill="var(--fill-0, white)"/>
<g id="Group 13257">
<path id="Vector_7" d="M162.188 15.1866C166.014 8.88872 178 9.67112 178 20.0206V35.6131H170.755V21.9623C170.755 19.7245 168.951 17.9107 166.725 17.9107C164.499 17.9107 162.695 19.7245 162.695 21.9623V35.6131H155.314V11.9174H162.178L162.187 15.1849L162.188 15.1866Z" fill="var(--fill-0, white)"/>
<path id="Vector_8" d="M151.824 12.0542H143.971V35.6131H151.824V12.0542Z" fill="var(--fill-0, white)"/>
<path id="Vector_9" d="M151.847 5.18667C152.075 2.87128 150.393 0.80858 148.091 0.579513C145.789 0.350446 143.739 2.04175 143.511 4.35715C143.283 6.67255 144.965 8.73524 147.267 8.96431C149.569 9.19338 151.619 7.50207 151.847 5.18667Z" fill="var(--fill-0, white)"/>
</g>
</g>
</svg>
