<svg preserveAspectRatio="none" width="100%" height="100%" overflow="visible" style="display: block;" viewBox="0 0 18.0003 18.6424" fill="none" xmlns="http://www.w3.org/2000/svg">
<g id="Group">
<path id="Vector" d="M9.6015 5.19451H17.4804C17.68 5.19451 17.971 5.45091 17.9893 5.64322C17.9739 6.5182 18.0749 7.40013 17.8643 8.25802C17.4364 9.99944 15.9193 11.4236 14.0593 11.8274C13.2987 11.9925 12.5296 11.9625 11.7525 11.9636L13.0317 17.9795C13.0808 18.3449 12.8297 18.6163 12.4417 18.6424H5.53969C5.16883 18.6125 4.91721 18.33 4.97084 17.9817L6.24776 11.9636H5.11291C2.75708 11.9508 0.652854 10.3958 0.131933 8.2436C-0.0740388 7.39105 0.0269502 6.51339 0.0109745 5.64375C0.0292324 5.45145 0.320218 5.19504 0.519913 5.19504H8.39876L8.39762 1.71914C8.46552 0.292887 10.1989 -0.509449 11.4398 0.360728C11.8826 0.671085 12.2095 1.24853 12.1953 1.77256C12.1821 2.25279 11.5802 2.514 11.1894 2.19189C10.9281 1.97715 11.0524 1.72128 10.9149 1.46915C10.6724 1.02525 9.97408 1.00067 9.70078 1.43336C9.68081 1.46487 9.59979 1.62513 9.59979 1.64756V5.19504L9.6015 5.19451ZM16.8117 6.31948H1.18918C1.19146 6.812 1.16693 7.30504 1.25365 7.79275C1.55091 9.4706 3.12851 10.7574 4.93889 10.8386H13.0425C14.7782 10.7692 16.3147 9.58919 16.7015 8.00375C16.8373 7.4466 16.8128 6.88785 16.8117 6.31948ZM6.28712 17.5164H11.7143L10.5298 11.9652L7.48131 11.9625L6.28712 17.5164Z" fill="var(--fill-0, #02033B)"/>
</g>
</svg>
