<svg preserveAspectRatio="none" width="100%" height="100%" overflow="visible" style="display: block;" viewBox="0 0 18.0003 19.2853" fill="none" xmlns="http://www.w3.org/2000/svg">
<g id="Group">
<path id="Vector" d="M9.6015 5.37363H17.4804C17.68 5.37363 17.971 5.63887 17.9893 5.83781C17.9739 6.74296 18.0749 7.6553 17.8643 8.54278C17.4364 10.3442 15.9193 11.8175 14.0593 12.2352C13.2987 12.406 12.5296 12.375 11.7525 12.3762L13.0317 18.5995C13.0808 18.9775 12.8297 19.2582 12.4417 19.2853H5.53969C5.16883 19.2543 4.91721 18.962 4.97084 18.6017L6.24776 12.3762H5.11291C2.75708 12.3629 0.652854 10.7543 0.131933 8.52786C-0.0740388 7.64591 0.0269502 6.73799 0.0109745 5.83836C0.0292324 5.63943 0.320218 5.37418 0.519913 5.37418H8.39876L8.39762 1.77842C8.46552 0.302986 10.1989 -0.527016 11.4398 0.373167C11.8826 0.694226 12.2095 1.29158 12.1953 1.83368C12.1821 2.33047 11.5802 2.60069 11.1894 2.26747C10.9281 2.04533 11.0524 1.78063 10.9149 1.51981C10.6724 1.0606 9.97408 1.03518 9.70078 1.48278C9.68081 1.51539 9.59979 1.68117 9.59979 1.70438V5.37418L9.6015 5.37363ZM16.8117 6.5374H1.18918C1.19146 7.04689 1.16693 7.55694 1.25365 8.06147C1.55091 9.79718 3.12851 11.1284 4.93889 11.2124H13.0425C14.7782 11.1405 16.3147 9.91985 16.7015 8.27974C16.8373 7.70338 16.8128 7.12536 16.8117 6.5374ZM6.28712 18.1204H11.7143L10.5298 12.3778L7.48131 12.375L6.28712 18.1204Z" fill="var(--fill-0, #02033B)"/>
</g>
</svg>
