<svg preserveAspectRatio="none" width="100%" height="100%" overflow="visible" style="display: block;" viewBox="0 0 11 18" fill="none" xmlns="http://www.w3.org/2000/svg">
<g id="Modalit&#195;&#160;_Isolamento" clip-path="url(#clip0_4042_47)">
<path id="Vector" d="M5.32425 17.9963C3.89675 15.6017 2.49524 13.1707 1.37548 10.5804C0.229735 7.93212 -0.822439 5.13025 0.936729 2.46603C3.10866 -0.823864 7.87359 -0.821589 10.0486 2.46603C11.7662 5.06086 10.8502 7.99242 9.71074 10.6032C8.75733 12.7885 7.4338 15.0079 6.11026 16.9475C5.90544 17.2478 5.6476 17.6516 5.42302 17.9201C5.40639 17.9395 5.35128 18.0168 5.32425 17.9975V17.9963ZM3.09514 8.62264C4.87302 10.5827 7.93805 9.78752 8.70535 7.16653C9.57662 4.18947 6.87652 1.44675 4.22633 2.61505C2.02113 3.58769 1.41291 6.76724 3.09514 8.62264Z" fill="var(--fill-0, #02033B)"/>
</g>
<defs>
<clipPath id="clip0_4042_47">
<rect width="11" height="18" fill="white"/>
</clipPath>
</defs>
</svg>
