<svg preserveAspectRatio="none" width="100%" height="100%" overflow="visible" style="display: block;" viewBox="0 0 1190 121" fill="none" xmlns="http://www.w3.org/2000/svg">
<g id="Rectangle 50">
<path d="M0 13C0 5.8203 5.8203 0 13 0H1177C1184.18 0 1190 5.8203 1190 13V108C1190 115.18 1184.18 121 1177 121H13C5.82026 121 0 115.18 0 108V13Z" fill="var(--fill-0, white)" fill-opacity="0.07"/>
<path d="M13 0.5H1177C1183.9 0.5 1189.5 6.09644 1189.5 13V108C1189.5 114.904 1183.9 120.5 1177 120.5H13C6.09644 120.5 0.500003 114.904 0.5 108V13L0.503906 12.6777C0.67484 5.92311 6.20419 0.5 13 0.5Z" stroke="var(--stroke-0, white)" stroke-opacity="0.29"/>
</g>
</svg>
