<svg preserveAspectRatio="none" width="100%" height="100%" overflow="visible" style="display: block;" viewBox="0 0 72 57" fill="none" xmlns="http://www.w3.org/2000/svg">
<g id="Livello_1" clip-path="url(#clip0_4042_57)">
<path id="Vector" d="M66.8459 8.10717L13.3594 0.0694632C10.0605 -0.427034 6.9674 1.84366 6.46874 5.13165L6.08863 7.62456L5.93171 8.66963L5.7713 9.72165L2.09231 33.9806L1.04616 40.8795L0.871797 42.0287C0.739284 42.9141 0.802054 43.796 1.04616 44.6292C1.24493 45.2959 1.55877 45.9313 1.9877 46.5111C2.02257 46.5562 2.05744 46.6013 2.09231 46.6465C3.0478 47.8652 4.41478 48.6603 5.95612 48.8929L46.0239 54.9168L52.953 55.9584L59.4426 56.934C59.7077 56.9722 59.9692 56.9931 60.2307 56.9965C60.2691 57 60.3109 57 60.3493 57C63.2925 57 65.8835 54.8543 66.3333 51.8719L71.9303 14.9713C72.4289 11.6833 70.1483 8.60367 66.8459 8.10717ZM69.8623 14.6589L65.1651 45.6188L65.1546 45.6952L64.2654 51.5594C63.9376 53.712 61.9116 55.198 59.753 54.8717L6.26997 46.834C4.10791 46.5076 2.61539 44.4938 2.94319 42.3412L8.04843 8.66616L8.20536 7.62456L8.53664 5.44066C8.83305 3.48939 10.5278 2.08323 12.4562 2.08323C12.6515 2.08323 12.8503 2.09712 13.0491 2.12837L56.5343 8.66616L63.1425 9.65916L66.5321 10.1695C68.6941 10.4924 70.1867 12.5097 69.8623 14.6589Z" fill="var(--fill-0, #050038)"/>
<path id="Vector_2" d="M54.857 27.7934L58.0443 45.9903L11.6019 39.1434C11.3613 38.8969 12.7073 36.7651 12.9723 36.4179C16.2852 32.1161 22.1437 32.0953 27.0327 33.0466C28.6124 33.3521 30.1677 34.0361 31.7195 34.2306L43.541 20.4501L49.9121 32.9667L54.857 27.7934Z" fill="var(--fill-0, #050038)"/>
<path id="Vector_3" d="M24.0965 13.4783C30.2095 12.5305 32.8389 20.2592 27.9463 23.3215C24.0895 25.7311 19.3888 22.3493 19.9921 17.9052C20.2606 15.9296 22.0669 13.7943 24.0965 13.4783Z" fill="var(--fill-0, #050038)"/>
<path id="Vector_4" d="M65.1651 45.6187L65.1547 45.6951L64.2654 51.5594C63.9376 53.712 61.9116 55.198 59.753 54.8716L6.26997 46.8339C4.10791 46.5076 2.61539 44.4938 2.94319 42.3412L8.04843 8.66614L8.20536 7.62454H6.05376C5.99448 7.62454 5.93868 7.62454 5.88289 7.62454C2.63632 7.71828 0 10.4126 0 13.6519V50.9726C0 54.2953 2.71652 57 6.05376 57H60.147C60.1749 57 60.2028 57 60.2307 56.9965C63.5296 56.9549 66.2008 54.2675 66.2008 50.9726V45.6951L65.1651 45.6187ZM2.09231 13.6519C2.09231 11.5896 3.72781 9.86398 5.7713 9.72163C5.83407 9.71469 5.89335 9.71121 5.95612 9.71121H6.05376H6.8314L2.09231 40.9732V13.6519ZM6.05376 54.9168C3.87078 54.9168 2.09231 53.1461 2.09231 50.9726V44.4626C2.25621 44.9695 2.5038 45.4486 2.8316 45.8896C3.62668 46.9624 4.7914 47.6638 6.11304 47.8651L53.0436 54.9168H6.05376Z" fill="var(--fill-0, #050038)"/>
</g>
<defs>
<clipPath id="clip0_4042_57">
<rect width="72" height="57" fill="white"/>
</clipPath>
</defs>
</svg>
