<svg preserveAspectRatio="none" width="100%" height="100%" overflow="visible" style="display: block;" viewBox="0 0 25 17" fill="none" xmlns="http://www.w3.org/2000/svg">
<g id="Livello_1" clip-path="url(#clip0_4042_69)">
<path id="Vector" d="M22.6384 14.9312V16.0773C22.6384 16.1876 22.5269 16.4253 22.462 16.5212C22.004 17.1912 20.9476 17.146 20.5426 16.4534L19.9392 14.9298H5.09859L5.05413 14.962L4.51642 16.3411C4.14595 17.2159 2.80167 17.2214 2.44391 16.3335C2.42062 16.2767 2.36276 16.1095 2.36276 16.0581V14.9305C1.87726 14.9086 1.34167 15.0004 0.885111 14.8086C0.428551 14.6168 0.132881 14.2297 0.0446738 13.7789C0.0418512 12.5643 -0.0343597 11.327 0.0199758 10.1111C0.031972 9.8473 0.0714887 9.55889 0.125824 9.30061C0.472302 7.66946 1.74248 6.34659 3.37184 5.85334L3.37961 1.38738C3.44523 0.620099 4.08103 0.0453254 4.86784 -0.00125932H20.115C20.8898 0.0309389 21.5376 0.598862 21.6208 1.35107L21.6237 5.84033C21.6321 5.86568 22.0612 6.00475 22.1331 6.03557C23.826 6.74805 24.9064 8.3422 24.9819 10.1295C25.0334 11.3401 24.9614 12.5705 24.9572 13.7789C24.8774 14.1831 24.6149 14.5462 24.2452 14.7469C23.754 15.0134 23.1796 14.9093 22.6384 14.9298V14.9312ZM20.834 5.6855V1.5011C20.834 1.14007 20.4988 0.809178 20.134 0.78246H4.88689C4.51289 0.792736 4.16783 1.13733 4.16783 1.5011V5.68619C4.25039 5.70126 4.33083 5.66906 4.40704 5.66701C4.7133 5.65673 5.09717 5.70194 5.38791 5.66906C5.41613 5.66564 5.4373 5.66701 5.45424 5.64029V4.78258C5.45424 4.75792 5.4994 4.61337 5.5114 4.57706C5.67228 4.09066 6.1359 3.77895 6.65385 3.74744C8.03412 3.66386 9.50612 3.80978 10.8956 3.75087C11.386 3.78923 11.8383 4.11601 11.9886 4.57295C12.1015 4.91754 12.0458 5.31077 12.0599 5.66838H12.9335L12.9624 5.64029V4.78258C12.9624 4.75792 13.0076 4.61337 13.0196 4.57706C13.1798 4.09203 13.6462 3.77827 14.162 3.74744C15.5317 3.66455 16.9896 3.81184 18.3685 3.74744C18.9626 3.75566 19.5674 4.31057 19.5674 4.89425V5.66769L20.8347 5.68619L20.834 5.6855ZM11.2526 5.66701V4.89356C11.2526 4.74216 11.019 4.53322 10.8589 4.52979H6.6722C6.50425 4.52979 6.32925 4.66475 6.27492 4.81478C6.26786 4.83396 6.24104 4.93878 6.24104 4.94974V5.6396L6.26998 5.66769H11.2526V5.66701ZM18.7601 5.66701V4.89356C18.7601 4.74216 18.5265 4.53322 18.3663 4.52979H14.1797C14.0054 4.53322 13.8403 4.65995 13.7859 4.81752C13.7782 4.84013 13.7485 4.95385 13.7485 4.96755V5.63892L13.7775 5.66701H18.7601ZM4.64344 6.43702C2.61185 6.4795 0.93239 8.09832 0.826541 10.0576C0.764443 11.2078 0.873115 12.4074 0.825836 13.5624C0.852651 13.8967 1.1088 14.1256 1.44964 14.1495H23.5699C23.9029 14.1194 24.1633 13.8728 24.1746 13.5439C24.1287 12.3992 24.2318 11.2147 24.1746 10.0754C24.0793 8.18532 22.5509 6.6309 20.6117 6.45073L20.3055 6.43086L4.64273 6.43702H4.64344ZM4.20593 14.9312H3.16932V16.0033C3.16932 16.0835 3.31186 16.1986 3.39443 16.2136C3.64776 16.2595 3.73102 16.1383 3.81711 15.943C3.96248 15.6135 4.0648 15.2628 4.20593 14.9319V14.9312ZM21.8318 14.9312H20.7952C20.9512 15.2696 21.0492 15.6594 21.208 15.9931C21.2927 16.1712 21.3894 16.2486 21.606 16.2123C21.6815 16.1999 21.8311 16.0938 21.8311 16.0211V14.9305L21.8318 14.9312Z" fill="var(--fill-0, #02033B)"/>
</g>
<defs>
<clipPath id="clip0_4042_69">
<rect width="25" height="17" fill="white"/>
</clipPath>
</defs>
</svg>
