<svg preserveAspectRatio="none" width="100%" height="100%" overflow="visible" style="display: block;" viewBox="0 0 57 48" fill="none" xmlns="http://www.w3.org/2000/svg">
<g id="Livello_1" clip-path="url(#clip0_4068_101)">
<path id="Vector" d="M0 31.6255L3.54763 29.2536C4.91576 27.9485 6.23631 26.5867 7.19757 24.944C6.85018 23.6554 6.1102 22.4163 5.76044 21.0711C0.473493 0.797702 29.4208 -8.4917 37.4512 9.87234C44.6416 26.3129 24.5907 40.7072 10.9118 29.3456C7.51403 30.908 3.77843 31.8662 0 31.6279V31.6255ZM11.8445 13.3747C6.78832 13.9247 9.29379 22.1473 13.9597 19.5276C17.1552 17.7339 15.3802 12.9901 11.8445 13.3747ZM21.5951 13.37C17.317 13.9577 18.2259 20.2144 22.2137 19.9736C26.7821 19.6975 25.9779 12.7682 21.5951 13.37ZM31.1673 13.3747C30.1584 13.54 29.0163 14.5052 28.6451 15.4446C27.3412 18.7487 31.6312 21.5242 34.1462 18.9659C36.3947 16.6789 34.2985 12.8626 31.1673 13.3724V13.3747Z" fill="var(--fill-0, #050038)"/>
<path id="Vector_2" d="M35.1218 48C33.4015 48 31.6574 47.7239 29.9467 47.1622C24.5859 45.4015 20.6886 41.1627 19.5203 35.8242L19.3442 35.0241L20.1675 34.9675C20.8718 34.9179 21.6046 34.9462 22.3137 34.9745C23.087 35.0052 23.8174 35.0335 24.4932 34.9675C27.2056 34.7078 30.3059 33.11 31.5123 32.435L31.755 32.2982L32.5877 32.494L32.7376 32.7867C33.3396 33.955 34.2033 34.5403 35.1765 34.4364C36.1282 34.3326 36.9943 33.5868 37.237 32.6616C37.4869 31.7129 37.03 30.7712 35.9498 30.0089L35.3145 29.5604L35.8189 28.9728C37.8509 26.6079 39.2856 23.9858 39.9685 21.385C40.1018 20.8752 40.1732 20.3536 40.2493 19.8037C40.304 19.4143 40.3587 19.0107 40.4373 18.6071C40.4111 18.331 40.4848 18.1115 40.6538 17.9439C40.9369 17.6655 41.2962 17.7079 41.4913 17.7315L41.5984 17.7433L41.6959 17.7858C48.7745 20.913 52.5149 28.9728 50.3949 36.5346C50.2236 37.1435 49.9714 37.7075 49.7263 38.2527C49.5407 38.6657 49.3646 39.0599 49.229 39.4564L51.3038 42.2083L56.9952 46.2724L55.0227 46.4069C51.8606 46.6241 48.5247 45.9656 45.0961 44.4504C42.2384 46.7822 38.7336 48 35.117 48H35.1218ZM21.124 36.3576C22.3898 40.8064 25.8018 44.3088 30.394 45.8193C35.3692 47.4548 40.649 46.4329 44.5155 43.0862L44.8653 42.7841L45.2864 42.9777C47.8585 44.1625 50.3663 44.8374 52.7695 44.9932L50.2973 43.2278L47.6634 39.7372L47.7562 39.4021C47.9251 38.7908 48.1797 38.222 48.4272 37.6721C48.6603 37.1506 48.8816 36.6573 49.0244 36.1499C50.8922 29.4896 47.78 22.4069 41.7554 19.3742C41.7245 19.5748 41.6959 19.7778 41.6674 19.9878C41.5889 20.5566 41.508 21.1419 41.3533 21.7343C40.6704 24.3351 39.3023 26.9478 37.375 29.3268C38.5171 30.377 38.9692 31.6869 38.6218 33.0133C38.2292 34.5096 36.8777 35.6708 35.3335 35.8383C33.913 35.9917 32.6353 35.2979 31.7502 33.9172C30.2441 34.722 27.3056 36.1168 24.6312 36.3717C23.8579 36.4449 23.0441 36.4142 22.2566 36.3835C21.8663 36.3694 21.4904 36.3528 21.124 36.3505V36.3576ZM43.697 35.8596C42.8119 35.8596 42.0029 35.5504 41.3605 34.9486C40.285 33.9408 39.8615 32.2486 40.3302 30.8325C40.7609 29.5345 41.8506 28.6872 43.3234 28.5078C45.5672 28.2317 47.0091 29.761 47.4017 31.2951C47.8704 33.1336 47.0091 34.8801 45.3054 35.541C44.7558 35.7557 44.2133 35.8596 43.697 35.8596ZM43.4971 29.9121C42.3265 30.0537 41.8673 30.731 41.6864 31.2739C41.389 32.1707 41.665 33.2823 42.3407 33.9172C42.957 34.4954 43.8017 34.6016 44.7844 34.2193C45.9717 33.7567 46.2596 32.5908 46.0169 31.6397C45.7837 30.7287 44.9842 29.7304 43.4971 29.9097V29.9121Z" fill="var(--fill-0, #050038)"/>
</g>
<defs>
<clipPath id="clip0_4068_101">
<rect width="57" height="48" fill="white"/>
</clipPath>
</defs>
</svg>
