<svg preserveAspectRatio="none" width="100%" height="100%" overflow="visible" style="display: block;" viewBox="0 0 54 60" fill="none" xmlns="http://www.w3.org/2000/svg">
<g id="Livello_1" clip-path="url(#clip0_4068_88)">
<path id="Vector" d="M31.9401 8.74731C34.6383 9.25538 37.3554 9.69355 40.0617 10.1613C41.1631 10.3521 42.2753 10.0645 41.6801 11.8145L35.0261 18.1801C34.9426 18.4167 35.0018 18.6667 35.0207 18.9086C35.2146 21.5188 36.3429 24.7634 36.4021 27.3011C36.4237 28.1747 35.8366 28.6344 34.9965 28.3844L26.8829 23.9919L18.8635 28.0699C18.4246 28.3038 17.9641 28.2392 17.5359 28C17.1939 27.7204 17.2963 26.957 17.3367 26.5349C17.5656 24.0296 18.675 21.0645 18.8554 18.5968C18.8689 18.4059 18.9093 18.2231 18.8393 18.0349L12.3441 11.5054C11.9832 10.8521 12.1475 10.0833 12.9338 9.9086L21.9711 8.70968L26.3066 0.38172C26.961 -0.185484 27.5938 -0.123656 28.0866 0.594086L31.9401 8.74731Z" fill="var(--fill-0, #050038)"/>
<path id="Vector_2" d="M15.6213 53.3521L13.187 39.2231L13.8252 38.9946C14.5038 38.75 15.1958 38.4866 15.8664 38.2285C18.2495 37.3172 20.7108 36.3763 23.3391 36.0376C26.347 35.6505 29.5084 35.6237 32.5648 35.5968C33.6877 35.586 34.8457 35.5753 35.9632 35.5484L36.1544 35.543L36.3267 35.6237C37.2665 36.0672 37.8778 36.9489 37.9209 37.9301C37.9613 38.8253 37.4981 39.6425 36.6795 40.121L36.6095 40.1613L36.5341 40.1882C35.0907 40.6828 33.5612 41.0403 32.0801 41.3844C31.6735 41.4785 31.2642 41.5753 30.8548 41.6747L37.1911 42.3495C40.0429 41.8145 42.7788 40.4973 45.4232 39.2204C47.1601 38.3817 48.959 37.5161 50.7982 36.8602L50.8871 36.828L50.9813 36.8172C52.1904 36.6882 53.316 37.3414 53.7819 38.4409C54.2451 39.5349 53.9408 40.7446 53.001 41.5242C49.8988 44.1021 43.9098 47.6263 41.9414 48.7823L41.5482 49.0161C40.2637 49.7769 38.9361 50.5618 37.4524 51.0403L37.3312 51.078H37.2046C32.1582 51.0941 26.9313 51.0995 21.2305 51.0995C20.937 51.0995 20.657 51.0699 20.385 51.0403C19.8545 50.9839 19.3913 50.9328 18.9578 51.1156L15.6105 53.3495L15.6213 53.3521ZM15.0073 40.2796L16.79 50.629L18.2334 49.6774C19.0897 49.2796 19.911 49.3656 20.5681 49.4382C20.8078 49.4651 21.034 49.4892 21.2413 49.4892C26.8936 49.4892 32.0774 49.4866 37.0807 49.4704C38.3491 49.043 39.5609 48.3253 40.7323 47.6317L41.1308 47.3979C43.0697 46.2554 48.9751 42.7823 51.975 40.2876C52.5512 39.8091 52.3708 39.2366 52.3008 39.0726C52.1554 38.7312 51.7972 38.3871 51.2452 38.4167C49.5191 39.0403 47.7956 39.871 46.1288 40.672C43.3497 42.0108 40.4764 43.3952 37.3662 43.9543L37.2531 43.9758L37.1373 43.9651L26.1235 42.7903L26.2689 41.9435C26.3551 41.4435 26.6917 41.1263 27.2679 41C27.2895 40.9946 27.311 40.9919 27.3326 40.9866C28.749 40.5054 30.257 40.1532 31.7166 39.8145C33.1276 39.4866 34.5845 39.1478 35.9282 38.6935C36.1894 38.5188 36.3213 38.2823 36.3106 38.0054C36.2971 37.6801 36.0978 37.3656 35.7909 37.1694C34.7299 37.1935 33.6393 37.2043 32.5837 37.2124C29.5757 37.2392 26.4628 37.2661 23.5518 37.6398C21.1174 37.9516 18.745 38.8602 16.4507 39.7366C15.9795 39.9167 15.4974 40.1021 15.0154 40.2796H15.0073Z" fill="var(--fill-0, #050038)"/>
<path id="Vector_3" d="M0.0969431 60L0 41.1667L10.7068 39.2043L13.9302 57.5161L0.0969431 60ZM1.6238 42.5081L1.70458 58.0726L12.0613 56.2124L9.3981 41.0833L1.6238 42.5081Z" fill="var(--fill-0, #050038)"/>
</g>
<defs>
<clipPath id="clip0_4068_88">
<rect width="54" height="60" fill="white"/>
</clipPath>
</defs>
</svg>
