<svg preserveAspectRatio="none" width="100%" height="100%" overflow="visible" style="display: block;" viewBox="0 0 58 46" fill="none" xmlns="http://www.w3.org/2000/svg">
<g id="Livello_1" clip-path="url(#clip0_4068_105)">
<path id="Vector" d="M53.8481 6.54261L10.7618 0.0560395C8.10433 -0.344643 5.61263 1.48785 5.21093 4.14132L4.90473 6.15313L4.77832 6.99653L4.6491 7.84553L1.68547 27.4229L0.842737 32.9904L0.702281 33.9179C0.595534 34.6324 0.646099 35.3441 0.842737 36.0166C1.00286 36.5545 1.25568 37.0673 1.6012 37.5352C1.62929 37.5717 1.65738 37.6081 1.68547 37.6445C2.45518 38.628 3.55635 39.2697 4.79799 39.4574L37.0748 44.3188L42.6566 45.1594L47.8843 45.9468C48.0978 45.9776 48.3085 45.9944 48.5192 45.9972C48.5501 46 48.5838 46 48.6147 46C50.9856 46 53.0728 44.2684 53.4352 41.8615L57.9438 12.0821C58.3455 9.42864 56.5084 6.94329 53.8481 6.54261ZM56.278 11.8299L52.4941 36.8151L52.4857 36.8768L51.7694 41.6093C51.5053 43.3465 49.8732 44.5458 48.1344 44.2824L5.05081 37.7958C3.30915 37.5324 2.10684 35.9073 2.3709 34.1701L6.48346 6.99373L6.60987 6.15313L6.87674 4.39069C7.11551 2.81598 8.48075 1.68118 10.0342 1.68118C10.1915 1.68118 10.3516 1.69239 10.5117 1.71761L45.5415 6.99373L50.8648 7.79509L53.5953 8.20698C55.3369 8.46756 56.5393 10.0955 56.278 11.8299Z" fill="var(--fill-0, #050038)"/>
<path id="Vector_2" d="M44.1903 22.4298L46.7579 37.1149L9.34596 31.5895C9.15213 31.3905 10.2365 29.6701 10.4499 29.3899C13.1186 25.9183 17.8379 25.9014 21.7763 26.6692C23.0489 26.9158 24.3017 27.4677 25.5518 27.6247L35.0747 16.5036L40.207 26.6047L44.1903 22.4298Z" fill="var(--fill-0, #050038)"/>
<path id="Vector_3" d="M19.4111 10.8773C24.3354 10.1123 26.4535 16.3495 22.5123 18.8209C19.4054 20.7654 15.6187 18.0363 16.1047 14.4498C16.321 12.8555 17.7761 11.1322 19.4111 10.8773Z" fill="var(--fill-0, #050038)"/>
<path id="Vector_4" d="M52.4941 36.8151L52.4857 36.8768L51.7694 41.6093C51.5053 43.3465 49.8732 44.5458 48.1344 44.2824L5.05081 37.7958C3.30915 37.5324 2.10684 35.9073 2.3709 34.1701L6.48346 6.99373L6.60987 6.15313H4.87664C4.82889 6.15313 4.78394 6.15313 4.73899 6.15313C2.1237 6.22879 0 8.40312 0 11.0174V41.1358C0 43.8173 2.18831 46 4.87664 46H48.4518C48.4743 46 48.4967 46 48.5192 45.9972C51.1766 45.9636 53.3284 43.7948 53.3284 41.1358V36.8768L52.4941 36.8151ZM1.68547 11.0174C1.68547 9.35299 3.00295 7.96041 4.6491 7.84553C4.69967 7.83992 4.74742 7.83712 4.79799 7.83712H4.87664H5.50308L1.68547 33.0661V11.0174ZM4.87664 44.3188C3.11813 44.3188 1.68547 42.8898 1.68547 41.1358V35.8821C1.8175 36.2912 2.01695 36.6778 2.28101 37.0337C2.92149 37.8995 3.85974 38.4655 4.9244 38.628L42.7296 44.3188H4.87664Z" fill="var(--fill-0, #050038)"/>
</g>
<defs>
<clipPath id="clip0_4068_105">
<rect width="58" height="46" fill="white"/>
</clipPath>
</defs>
</svg>
