<svg preserveAspectRatio="none" width="100%" height="100%" overflow="visible" style="display: block;" viewBox="0 0 49 48" fill="none" xmlns="http://www.w3.org/2000/svg">
<g id="Livello_1" clip-path="url(#clip0_4068_95)">
<g id="RV3ZRp">
<path id="Vector" d="M10.447 4.14252C11.1242 4.29936 11.7619 4.52093 12.2908 4.99144L18.776 11.5264C19.856 12.8931 19.8412 14.7851 18.7093 16.1145C17.1596 17.9368 15.0885 19.565 13.487 21.3698C12.9507 22.0719 13.4524 23.3067 13.7836 24.0261C15.3456 27.4343 20.0414 32.1195 23.326 33.8796C24.07 34.2779 25.6838 35.0397 26.4377 34.4621C28.2295 32.8489 29.8459 30.7627 31.655 29.2018C33.1107 27.9446 35.1522 28.0243 36.5214 29.3586C38.3948 31.4722 40.7353 33.3543 42.584 35.4679C43.1178 36.0778 43.4441 36.7151 43.5825 37.5267V38.3781C43.4638 38.9084 43.318 39.4311 43.014 39.8867C41.2222 41.7738 39.3834 43.8152 37.4754 45.5827C36.3163 46.6582 35.0558 47.4 33.4987 47.7535L31.9442 48H30.4341L28.4692 47.7187C23.7264 46.6631 19.3939 44.0143 15.6199 41.017C9.44114 36.1077 1.85116 27.3621 0.29658 19.4056L0.00988601 17.3891C0.0321295 16.8887 -0.019772 16.3635 0.00988601 15.8681C0.254565 11.8699 2.49622 10.2617 5.02951 7.7025C6.1837 6.53742 7.89398 4.32426 9.55977 4.14252H10.447ZM15.4963 16.824C15.5606 16.9336 15.6273 17.0531 15.7583 16.946C16.302 16.3012 17.0756 15.7311 17.5996 15.0864C18.2249 14.3196 18.2249 13.2541 17.5996 12.4898L11.2231 6.06939C10.41 5.45947 9.38924 5.53166 8.62554 6.17893C8.00767 6.70173 7.46394 7.42866 6.84606 7.96639L6.80157 8.0585L15.4938 16.8215L15.4963 16.824ZM6.64587 10.0775C6.34187 9.77875 6.03294 9.48498 5.73883 9.17629H5.64985C4.33254 10.5878 2.7409 11.7604 2.0291 13.6325C0.160648 18.5517 3.73444 25.2012 6.50005 29.1744C9.27802 33.1676 12.9457 37.0039 16.7568 40.0087C20.8397 43.2251 27.7649 47.5096 33.1428 46.2798C35.5624 45.7271 36.8674 44.0292 38.5406 42.3638L38.6024 42.2567L29.7668 33.3418L29.6556 33.3642C28.9339 34.019 28.2789 34.8629 27.5474 35.4928C25.6591 37.1209 22.8317 35.4355 21.119 34.2704C18.7117 32.6323 16.2946 30.2549 14.5151 27.9471C13.136 26.1571 10.5756 22.4602 12.3995 20.3193C13.0594 19.545 13.9417 18.853 14.6214 18.0837C11.9621 15.415 9.32745 12.7188 6.64587 10.0775ZM33.6693 29.8416C33.3406 29.8814 33.0366 30.0408 32.7696 30.2325L30.7924 32.2216L39.6973 41.1937C40.2484 40.5639 40.9899 39.9963 41.5188 39.3614C42.2874 38.4403 42.2676 37.4221 41.4965 36.5184C39.6726 34.38 37.2455 32.468 35.3672 30.3445C34.8531 29.9163 34.3391 29.7619 33.6693 29.8441V29.8416Z" fill="var(--fill-0, #050038)"/>
</g>
<path id="Vector_2" d="M38.3997 0.711996L37.2752 11.2774C37.1862 11.8152 36.5931 12.0541 36.1605 11.7206L33.6198 9.20616L26.7688 16.1021C26.4574 16.3933 26.1287 16.4282 25.7852 16.1618L22.3053 12.6516C22.0853 12.3703 22.1471 11.8824 22.4511 11.6907L29.2675 4.82216L26.7145 2.19823C26.45 1.80986 26.6626 1.26964 27.105 1.15513C27.2137 1.12774 27.3719 1.11529 27.488 1.09787C30.8048 0.607437 34.2525 0.490431 37.5792 0.00746849C38.0043 -0.0597479 38.3973 0.273845 38.3997 0.711996Z" fill="var(--fill-0, #050038)"/>
<path id="Vector_3" d="M48.7232 13.3064L41.9043 20.1749L44.4574 22.7988C44.7218 23.1872 44.5118 23.7274 44.0669 23.8419C43.9606 23.8718 43.8024 23.8842 43.6838 23.9017C40.367 24.3896 36.9218 24.5066 33.5951 24.9896C33.1676 25.0568 32.7746 24.7232 32.7721 24.285L33.8991 13.7196C33.9881 13.1819 34.5813 12.9429 35.0138 13.2765L37.552 15.7909L44.403 8.89497C44.7144 8.6037 45.0431 8.57134 45.3867 8.83523L48.869 12.3454C49.0865 12.6267 49.0247 13.1147 48.7232 13.3064Z" fill="var(--fill-0, #050038)"/>
</g>
<defs>
<clipPath id="clip0_4068_95">
<rect width="49" height="48" fill="white"/>
</clipPath>
</defs>
</svg>
