<svg preserveAspectRatio="none" width="100%" height="100%" overflow="visible" style="display: block;" viewBox="0 0 60 51" fill="none" xmlns="http://www.w3.org/2000/svg">
<g id="Livello_1" clip-path="url(#clip0_4068_113)">
<path id="Vector" d="M57.8061 5.22104C52.7194 -1.74314 41.5647 -1.73756 36.4696 5.22104C35.4855 6.56256 34.8736 7.9487 34.5466 9.35437C34.2195 9.03084 33.8924 8.70453 33.5681 8.381C32.054 6.87772 30.5398 5.37723 29.0313 3.87116C28.8705 3.7094 28.6027 3.41934 28.2953 3.08466C26.6881 1.33594 25.814 0.462977 25.1965 0.231489C24.4408 -0.0502021 23.5893 0.0836707 22.9746 0.582905L16.9658 6.61555C16.9123 5.99081 16.7487 5.40512 16.3427 4.97003C16.0071 4.61025 15.5447 4.41223 15.0062 4.39549C14.2561 4.37039 10.7231 4.37597 9.98713 4.39549C9.53034 4.40665 9.13276 4.57957 8.83388 4.89194C8.4363 5.31308 8.2502 5.95456 8.28122 6.79963L8.3066 7.44389C8.40529 9.95122 8.50397 12.545 8.2925 14.8962C8.26148 15.242 8.08666 15.5432 7.94004 15.744C6.95597 16.8401 5.79426 17.9334 4.67203 18.9932C3.38061 20.2092 2.04972 21.4643 0.93031 22.7668C0.377653 23.4138 -0.459793 24.39 0.3128 25.7761C0.997983 27.0033 2.67851 26.9168 4.02914 26.8471C4.39288 26.8276 4.76508 26.8108 5.04705 26.8248L5.06396 48.2389V48.3002C5.17957 49.7673 5.63354 50.7072 7.55092 50.855C8.92975 50.961 10.3537 51 11.7635 51C13.6443 51 15.5081 50.9303 17.214 50.855H17.2591C17.8512 50.7936 19.4246 50.643 19.622 49.0086L19.6276 48.9473C19.7178 47.048 19.6615 45.0817 19.6107 43.1796C19.5543 41.1241 19.4923 38.9989 19.622 36.9991C19.715 35.5405 19.9519 35.3118 20.7696 35.2281C22.5826 35.0468 26.3356 35.0747 28.019 35.2253C28.6027 35.2783 28.9636 35.613 29.0397 36.1764C29.1694 38.0534 29.0961 40.081 29.0256 42.0417C28.9467 44.192 28.8677 46.4149 29.0482 48.501C29.2061 50.3251 30.1563 50.7546 31.6338 50.855C34.3351 51.039 38.4603 51.039 41.0234 50.855C41.7142 50.8048 43.1494 50.7016 43.5329 49.268L43.5583 49.1732V49.0756C43.6457 45.7092 43.6231 42.2815 43.6034 38.9682C43.5921 36.9991 43.5808 34.9994 43.5893 32.9913C44.2829 33.9758 44.9878 34.9408 45.6899 35.8724C46.1693 36.5083 46.7727 37.3645 47.3 37.9307C47.3394 37.9725 47.4692 38.137 47.5312 38.0924C50.8725 33.0248 54.1546 27.8762 56.7769 22.3958C59.4584 16.7899 61.9228 10.8577 57.8033 5.21825L57.8061 5.22104ZM41.9144 38.9765C41.9341 42.2369 41.9539 45.6088 41.8749 48.911C41.8129 49.0421 41.6352 49.1341 40.9021 49.1871C38.449 49.3656 34.3435 49.3656 31.7522 49.1871C30.7992 49.123 30.7992 49.0923 30.7343 48.3588C30.5623 46.373 30.6413 44.2032 30.7174 42.103C30.7907 40.0922 30.8669 38.0115 30.7287 36.0397V35.9979C30.5595 34.6424 29.5557 33.6858 28.1713 33.5631C26.4146 33.4069 22.4981 33.379 20.6004 33.5686C18.1332 33.8141 18.0035 35.8194 17.9358 36.8987C17.8033 38.9738 17.8625 41.138 17.9217 43.2326C17.9725 45.0929 18.0289 47.0173 17.9414 48.8441C17.9189 49.0003 17.8653 49.1174 17.1181 49.1899C14.1856 49.3182 10.802 49.4326 7.68345 49.1899C6.88548 49.1286 6.82908 49.123 6.75577 48.2082L6.73885 26.465V26.3702L6.7163 26.2781C6.57813 25.6869 6.13544 25.2908 5.50101 25.1904C5.0555 25.1207 4.51413 25.1486 3.94173 25.1765C3.29884 25.2099 1.96513 25.2769 1.79313 24.9645C1.62395 24.6633 1.60703 24.5629 2.2189 23.8489C3.27629 22.6134 4.57898 21.389 5.83656 20.2037C6.99545 19.1131 8.19099 17.9864 9.22863 16.8262L9.27093 16.7732C9.67696 16.2377 9.92227 15.6408 9.97585 15.044C10.1986 12.5868 10.0943 9.93728 9.99559 7.37696L9.97021 6.73548C9.95611 6.3506 10.0097 6.14421 10.0492 6.06333C10.8133 6.0438 14.2223 6.04102 14.9498 6.06333C15.0654 6.06612 15.0908 6.09401 15.0992 6.10237C15.3445 6.36454 15.2966 7.44668 15.2712 8.02959C15.2599 8.30012 15.2487 8.5595 15.2487 8.79378L15.2571 10.9748L17.8371 8.11605L24.0686 1.85191C24.2152 1.74872 24.4126 1.7264 24.579 1.78776C24.9963 1.98857 26.4259 3.54205 27.0377 4.20584C27.3592 4.55447 27.6383 4.85847 27.8244 5.04534C29.333 6.55141 30.8471 8.05469 32.3641 9.55797C32.9957 10.1827 33.6245 10.8102 34.2561 11.4378C34.0813 15.1416 35.5616 18.9291 37.2591 22.4404C38.5731 25.1597 40.1859 27.9069 41.9228 30.5425C41.8805 33.3734 41.8946 36.2043 41.9116 38.9738L41.9144 38.9765ZM52.7532 18.2513C48.5886 22.3986 41.4125 20.7168 39.6192 15.1695C37.5777 8.86629 43.8994 3.06234 50.1056 5.5362C55.2684 7.5945 56.6951 14.3244 52.7532 18.2513Z" fill="var(--fill-0, #050038)"/>
</g>
<defs>
<clipPath id="clip0_4068_113">
<rect width="60" height="51" fill="white"/>
</clipPath>
</defs>
</svg>
